<svg width="26" height="20" viewBox="0 0 26 20" fill="none" xmlns="http://www.w3.org/2000/svg">
<path d="M1.328 8.45172C0.594534 8.45172 -6.03199e-05 9.04632 -6.03199e-05 9.77979C-6.03199e-05 10.5133 0.594534 11.1078 1.328 11.1078V9.77979V8.45172ZM25.2868 10.7189C25.8055 10.2002 25.8055 9.35934 25.2868 8.8407L16.8351 0.38896C16.3165 -0.129681 15.4756 -0.129681 14.9569 0.38896C14.4383 0.9076 14.4383 1.74848 14.9569 2.26713L22.4696 9.77979L14.9569 17.2924C14.4383 17.8111 14.4383 18.652 14.9569 19.1706C15.4756 19.6893 16.3165 19.6893 16.8351 19.1706L25.2868 10.7189ZM1.328 9.77979V11.1078H24.3478V9.77979V8.45172H1.328V9.77979Z" fill="#02341C"/>
</svg>
