<svg width="32" height="32" viewBox="0 0 32 32" fill="none" xmlns="http://www.w3.org/2000/svg">
<path fill-rule="evenodd" clip-rule="evenodd" d="M10.8158 3.96673C9.41299 2.67776 7.25679 2.67776 5.854 3.96673C5.79655 4.01952 5.73522 4.08086 5.65558 4.16052L4.45893 5.35718C3.25477 6.56133 2.74928 8.29722 3.1187 9.9596C5.21466 19.3914 12.5807 26.7575 22.0125 28.8534C23.6749 29.2228 25.4108 28.7173 26.6149 27.5132L27.8115 26.3167C27.8912 26.237 27.9526 26.1756 28.0054 26.1181C29.2944 24.7153 29.2944 22.5591 28.0054 21.1563C27.9526 21.0989 27.8912 21.0375 27.8115 20.9578L25.8525 18.9988C24.4923 17.6387 22.4383 17.2497 20.675 18.0183C19.6655 18.4583 18.4896 18.2356 17.7109 17.4569L14.5152 14.2612C13.7365 13.4825 13.5138 12.3066 13.9538 11.2971C14.7225 9.53382 14.3335 7.47979 12.9733 6.11965L11.0142 4.16054C10.9346 4.08088 10.8732 4.01953 10.8158 3.96673ZM7.20721 5.43942C7.84484 4.85353 8.82493 4.85353 9.46256 5.43942C9.48457 5.45965 9.51342 5.48818 9.61485 5.5896L11.5591 7.53386C12.3378 8.31253 12.5605 9.48846 12.1205 10.4979C11.3518 12.2612 11.7408 14.3153 13.101 15.6754L16.2967 18.8711C17.6569 20.2313 19.7109 20.6203 21.4742 19.8517C22.4837 19.4116 23.6596 19.6343 24.4383 20.413L26.3825 22.3573C26.4839 22.4587 26.5125 22.4875 26.5327 22.5096C27.1186 23.1472 27.1186 24.1273 26.5327 24.7649C26.5125 24.7869 26.4839 24.8158 26.3825 24.9172L25.2007 26.099C24.4801 26.8196 23.4412 27.1221 22.4464 26.901C13.7726 24.9735 6.99858 18.1995 5.07107 9.52574C4.84999 8.53088 5.15251 7.49202 5.87314 6.77139L7.05493 5.5896C7.15635 5.48818 7.1852 5.45965 7.20721 5.43942Z" fill="#FE5808"/>
</svg>
