<svg width="299" height="367" viewBox="0 0 299 367" fill="none" xmlns="http://www.w3.org/2000/svg">
<circle cx="64.325" cy="233.163" r="4.96051" fill="#106B3D" fill-opacity="0.24"/>
<circle cx="50.2011" cy="226.811" r="4.71249" transform="rotate(-63 50.2011 226.811)" fill="#106B3D" fill-opacity="0.24"/>
<circle cx="51.0175" cy="242.549" r="4.71249" transform="rotate(-123 51.0175 242.549)" fill="#106B3D" fill-opacity="0.24"/>
<circle cx="64.9712" cy="249.813" r="4.71249" transform="rotate(177 64.9712 249.813)" fill="#106B3D" fill-opacity="0.24"/>
<circle cx="78.2054" cy="241.275" r="4.71249" transform="rotate(117 78.2054 241.275)" fill="#106B3D" fill-opacity="0.24"/>
<circle cx="77.4677" cy="225.533" r="4.71249" transform="rotate(57 77.4677 225.533)" fill="#106B3D" fill-opacity="0.24"/>
<circle cx="63.4959" cy="218.328" r="4.71249" transform="rotate(-3 63.4959 218.328)" fill="#106B3D" fill-opacity="0.24"/>
<circle cx="46.2733" cy="209.229" r="4.46446" transform="rotate(-36 46.2733 209.229)" fill="#106B3D" fill-opacity="0.24"/>
<circle cx="36.265" cy="221.517" r="4.46446" transform="rotate(-66 36.265 221.517)" fill="#106B3D" fill-opacity="0.24"/>
<circle cx="33.7727" cy="237.188" r="4.46446" transform="rotate(-96 33.7727 237.188)" fill="#106B3D" fill-opacity="0.24"/>
<circle cx="39.3783" cy="251.974" r="4.46446" transform="rotate(-126 39.3783 251.974)" fill="#106B3D" fill-opacity="0.24"/>
<circle cx="51.6658" cy="261.983" r="4.46446" transform="rotate(-156 51.6658 261.983)" fill="#106B3D" fill-opacity="0.24"/>
<circle cx="67.3433" cy="264.532" r="4.46446" transform="rotate(174 67.3433 264.532)" fill="#106B3D" fill-opacity="0.24"/>
<circle cx="82.1232" cy="258.869" r="4.46446" transform="rotate(144 82.1232 258.869)" fill="#106B3D" fill-opacity="0.24"/>
<circle cx="92.1313" cy="246.581" r="4.46446" transform="rotate(114 92.1313 246.581)" fill="#106B3D" fill-opacity="0.24"/>
<circle cx="94.6871" cy="230.961" r="4.46446" transform="rotate(84 94.6871 230.961)" fill="#106B3D" fill-opacity="0.24"/>
<circle cx="89.0179" cy="216.124" r="4.46446" transform="rotate(54 89.0179 216.124)" fill="#106B3D" fill-opacity="0.24"/>
<circle cx="76.7304" cy="206.116" r="4.46446" transform="rotate(24 76.7304 206.116)" fill="#106B3D" fill-opacity="0.24"/>
<circle cx="61.1164" cy="203.618" r="4.46446" transform="rotate(-6 61.1164 203.618)" fill="#106B3D" fill-opacity="0.24"/>
<circle cx="42.2297" cy="194.248" r="4.21643" transform="rotate(-29 42.2297 194.248)" fill="#106B3D" fill-opacity="0.24"/>
<circle cx="29.9264" cy="204.155" r="4.21643" transform="rotate(-49 29.9264 204.155)" fill="#106B3D" fill-opacity="0.24"/>
<circle cx="21.7709" cy="217.679" r="4.21643" transform="rotate(-69 21.7709 217.679)" fill="#106B3D" fill-opacity="0.24"/>
<circle cx="18.7462" cy="233.189" r="4.21644" transform="rotate(-89 18.7462 233.189)" fill="#106B3D" fill-opacity="0.24"/>
<circle cx="21.2138" cy="248.787" r="4.21643" transform="rotate(-109 21.2138 248.787)" fill="#106B3D" fill-opacity="0.24"/>
<circle cx="28.7981" cy="262.604" r="4.21643" transform="rotate(-129 28.7981 262.604)" fill="#106B3D" fill-opacity="0.24"/>
<circle cx="40.6927" cy="272.985" r="4.21643" transform="rotate(-149 40.6927 272.985)" fill="#106B3D" fill-opacity="0.24"/>
<circle cx="55.4368" cy="278.681" r="4.21643" transform="rotate(-169 55.4368 278.681)" fill="#106B3D" fill-opacity="0.24"/>
<circle cx="71.2516" cy="279.005" r="4.21643" transform="rotate(171 71.2516 279.005)" fill="#106B3D" fill-opacity="0.24"/>
<circle cx="86.1677" cy="273.874" r="4.21643" transform="rotate(151 86.1677 273.874)" fill="#106B3D" fill-opacity="0.24"/>
<circle cx="98.4481" cy="263.951" r="4.21643" transform="rotate(131 98.4481 263.951)" fill="#106B3D" fill-opacity="0.24"/>
<circle cx="106.611" cy="250.433" r="4.21643" transform="rotate(111 106.611 250.433)" fill="#106B3D" fill-opacity="0.24"/>
<circle cx="109.674" cy="234.95" r="4.21644" transform="rotate(91 109.674 234.95)" fill="#106B3D" fill-opacity="0.24"/>
<circle cx="107.233" cy="219.347" r="4.21643" transform="rotate(71 107.233 219.347)" fill="#106B3D" fill-opacity="0.24"/>
<circle cx="99.5842" cy="205.507" r="4.21643" transform="rotate(51 99.5842 205.507)" fill="#106B3D" fill-opacity="0.24"/>
<circle cx="87.6818" cy="195.121" r="4.21643" transform="rotate(31 87.6818 195.121)" fill="#106B3D" fill-opacity="0.24"/>
<circle cx="72.9607" cy="189.441" r="4.21643" transform="rotate(11 72.9607 189.441)" fill="#106B3D" fill-opacity="0.24"/>
<circle cx="57.1969" cy="189.154" r="4.21643" transform="rotate(-9 57.1969 189.154)" fill="#106B3D" fill-opacity="0.24"/>
<circle cx="36.891" cy="180.278" r="3.96841" transform="rotate(-27 36.891 180.278)" fill="#106B3D" fill-opacity="0.24"/>
<circle cx="23.8857" cy="189.171" r="3.96841" transform="rotate(-42 23.8857 189.171)" fill="#106B3D" fill-opacity="0.24"/>
<circle cx="13.6358" cy="201.129" r="3.96841" transform="rotate(-57 13.6358 201.129)" fill="#106B3D" fill-opacity="0.24"/>
<circle cx="6.83984" cy="215.337" r="3.96841" transform="rotate(-72 6.83984 215.337)" fill="#106B3D" fill-opacity="0.24"/>
<circle cx="3.96534" cy="230.849" r="3.96841" transform="rotate(-87 3.96534 230.849)" fill="#106B3D" fill-opacity="0.24"/>
<circle cx="5.19943" cy="246.566" r="3.96841" transform="rotate(-102 5.19943 246.566)" fill="#106B3D" fill-opacity="0.24"/>
<circle cx="10.4215" cy="261.409" r="3.96841" transform="rotate(-117 10.4215 261.409)" fill="#106B3D" fill-opacity="0.24"/>
<circle cx="19.3162" cy="274.395" r="3.96841" transform="rotate(-132 19.3162 274.395)" fill="#106B3D" fill-opacity="0.24"/>
<circle cx="31.2775" cy="284.637" r="3.96841" transform="rotate(-147 31.2775 284.637)" fill="#106B3D" fill-opacity="0.24"/>
<circle cx="45.4905" cy="291.439" r="3.96841" transform="rotate(-162 45.4905 291.439)" fill="#106B3D" fill-opacity="0.24"/>
<circle cx="60.9864" cy="294.336" r="3.96841" transform="rotate(-177 60.9864 294.336)" fill="#106B3D" fill-opacity="0.24"/>
<circle cx="76.709" cy="293.131" r="3.96841" transform="rotate(168 76.709 293.131)" fill="#106B3D" fill-opacity="0.24"/>
<circle cx="91.5463" cy="287.88" r="3.96841" transform="rotate(153 91.5463 287.88)" fill="#106B3D" fill-opacity="0.24"/>
<circle cx="104.528" cy="278.967" r="3.96841" transform="rotate(138 104.528 278.967)" fill="#106B3D" fill-opacity="0.24"/>
<circle cx="114.769" cy="266.999" r="3.96841" transform="rotate(123 114.769 266.999)" fill="#106B3D" fill-opacity="0.24"/>
<circle cx="121.572" cy="252.792" r="3.96841" transform="rotate(108 121.572 252.792)" fill="#106B3D" fill-opacity="0.24"/>
<circle cx="124.473" cy="237.315" r="3.96841" transform="rotate(93 124.473 237.315)" fill="#106B3D" fill-opacity="0.24"/>
<circle cx="123.274" cy="221.622" r="3.96841" transform="rotate(78 123.274 221.622)" fill="#106B3D" fill-opacity="0.24"/>
<circle cx="118.017" cy="206.755" r="3.96841" transform="rotate(63 118.017 206.755)" fill="#106B3D" fill-opacity="0.24"/>
<circle cx="109.1" cy="193.755" r="3.96841" transform="rotate(48 109.1 193.755)" fill="#106B3D" fill-opacity="0.24"/>
<circle cx="97.131" cy="183.507" r="3.96841" transform="rotate(33 97.131 183.507)" fill="#106B3D" fill-opacity="0.24"/>
<circle cx="82.9256" cy="176.711" r="3.96841" transform="rotate(18 82.9256 176.711)" fill="#106B3D" fill-opacity="0.24"/>
<circle cx="67.4521" cy="173.828" r="3.96841" transform="rotate(3 67.4521 173.828)" fill="#106B3D" fill-opacity="0.24"/>
<circle cx="51.7649" cy="175.056" r="3.96841" transform="rotate(-12 51.7649 175.056)" fill="#106B3D" fill-opacity="0.24"/>
<circle cx="30.1477" cy="167.054" r="3.72038" transform="rotate(-27 30.1477 167.054)" fill="#106B3D" fill-opacity="0.24"/>
<circle cx="16.944" cy="175.597" r="3.72038" transform="rotate(-39 16.944 175.597)" fill="#106B3D" fill-opacity="0.24"/>
<circle cx="5.81072" cy="186.698" r="3.72038" transform="rotate(-51 5.81072 186.698)" fill="#106B3D" fill-opacity="0.24"/>
<circle cx="-2.76563" cy="199.873" r="3.72038" transform="rotate(-63 -2.76563 199.873)" fill="#106B3D" fill-opacity="0.24"/>
<circle cx="1.10734" cy="274.977" r="3.72038" transform="rotate(-123 1.10734 274.977)" fill="#106B3D" fill-opacity="0.24"/>
<circle cx="10.9795" cy="287.199" r="3.72038" transform="rotate(-135 10.9795 287.199)" fill="#106B3D" fill-opacity="0.24"/>
<circle cx="23.1827" cy="297.103" r="3.72038" transform="rotate(-147 23.1827 297.103)" fill="#106B3D" fill-opacity="0.24"/>
<circle cx="37.1837" cy="304.254" r="3.72038" transform="rotate(-159 37.1837 304.254)" fill="#106B3D" fill-opacity="0.24"/>
<circle cx="52.3708" cy="308.342" r="3.72038" transform="rotate(-171 52.3708 308.342)" fill="#106B3D" fill-opacity="0.24"/>
<circle cx="68.0798" cy="309.186" r="3.72038" transform="rotate(177 68.0798 309.186)" fill="#106B3D" fill-opacity="0.24"/>
<circle cx="83.6241" cy="306.752" r="3.72038" transform="rotate(165 83.6241 306.752)" fill="#106B3D" fill-opacity="0.24"/>
<circle cx="98.2908" cy="301.124" r="3.72038" transform="rotate(153 98.2908 301.124)" fill="#106B3D" fill-opacity="0.24"/>
<circle cx="111.473" cy="292.569" r="3.72038" transform="rotate(141 111.473 292.569)" fill="#106B3D" fill-opacity="0.24"/>
<circle cx="122.594" cy="281.46" r="3.72038" transform="rotate(129 122.594 281.46)" fill="#106B3D" fill-opacity="0.24"/>
<circle cx="131.167" cy="268.284" r="3.72038" transform="rotate(117 131.167 268.284)" fill="#106B3D" fill-opacity="0.24"/>
<circle cx="136.819" cy="253.616" r="3.72038" transform="rotate(105 136.819 253.616)" fill="#106B3D" fill-opacity="0.24"/>
<circle cx="139.303" cy="238.096" r="3.72038" transform="rotate(93 139.303 238.096)" fill="#106B3D" fill-opacity="0.24"/>
<circle cx="138.509" cy="222.404" r="3.72038" transform="rotate(81 138.509 222.404)" fill="#106B3D" fill-opacity="0.24"/>
<circle cx="134.455" cy="207.215" r="3.72038" transform="rotate(69 134.455 207.215)" fill="#106B3D" fill-opacity="0.24"/>
<circle cx="127.319" cy="193.194" r="3.72038" transform="rotate(57 127.319 193.194)" fill="#106B3D" fill-opacity="0.24"/>
<circle cx="117.43" cy="180.962" r="3.72038" transform="rotate(45 117.43 180.962)" fill="#106B3D" fill-opacity="0.24"/>
<circle cx="105.219" cy="171.054" r="3.72038" transform="rotate(33 105.219 171.054)" fill="#106B3D" fill-opacity="0.24"/>
<circle cx="91.2203" cy="163.904" r="3.72038" transform="rotate(21 91.2203 163.904)" fill="#106B3D" fill-opacity="0.24"/>
<circle cx="76.0457" cy="159.824" r="3.72038" transform="rotate(9 76.0457 159.824)" fill="#106B3D" fill-opacity="0.24"/>
<circle cx="60.3587" cy="158.992" r="3.72038" transform="rotate(-3 60.3587 158.992)" fill="#106B3D" fill-opacity="0.24"/>
<circle cx="44.8449" cy="161.444" r="3.72038" transform="rotate(-15 44.8449 161.444)" fill="#106B3D" fill-opacity="0.24"/>
<circle cx="22.0081" cy="154.548" r="3.47236" transform="rotate(-28 22.0081 154.548)" fill="#106B3D" fill-opacity="0.24"/>
<circle cx="8.82571" cy="163.081" r="3.47236" transform="rotate(-38 8.82571 163.081)" fill="#106B3D" fill-opacity="0.24"/>
<circle cx="-2.67054" cy="173.774" r="3.47236" transform="rotate(-48 -2.67054 173.774)" fill="#106B3D" fill-opacity="0.24"/>
<circle cx="3.76106" cy="300.796" r="3.47236" transform="rotate(-138 3.76106 300.796)" fill="#106B3D" fill-opacity="0.24"/>
<circle cx="16.2647" cy="310.252" r="3.47236" transform="rotate(-148 16.2647 310.252)" fill="#106B3D" fill-opacity="0.24"/>
<circle cx="30.2285" cy="317.395" r="3.47236" transform="rotate(-158 30.2285 317.395)" fill="#106B3D" fill-opacity="0.24"/>
<circle cx="45.2281" cy="322.009" r="3.47236" transform="rotate(-168 45.2281 322.009)" fill="#106B3D" fill-opacity="0.24"/>
<circle cx="60.8074" cy="323.953" r="3.47236" transform="rotate(-178 60.8074 323.953)" fill="#106B3D" fill-opacity="0.24"/>
<circle cx="76.4937" cy="323.169" r="3.47236" transform="rotate(172 76.4937 323.169)" fill="#106B3D" fill-opacity="0.24"/>
<circle cx="91.8096" cy="319.679" r="3.47236" transform="rotate(162 91.8096 319.679)" fill="#106B3D" fill-opacity="0.24"/>
<circle cx="106.23" cy="313.56" r="3.47236" transform="rotate(152 106.23 313.56)" fill="#106B3D" fill-opacity="0.24"/>
<circle cx="119.377" cy="305.028" r="3.47236" transform="rotate(142 119.377 305.028)" fill="#106B3D" fill-opacity="0.24"/>
<circle cx="130.851" cy="294.342" r="3.47236" transform="rotate(132 130.851 294.342)" fill="#106B3D" fill-opacity="0.24"/>
<circle cx="140.303" cy="281.827" r="3.47236" transform="rotate(122 140.303 281.827)" fill="#106B3D" fill-opacity="0.24"/>
<circle cx="147.447" cy="267.864" r="3.47236" transform="rotate(112 147.447 267.864)" fill="#106B3D" fill-opacity="0.24"/>
<circle cx="152.064" cy="252.875" r="3.47236" transform="rotate(102 152.064 252.875)" fill="#106B3D" fill-opacity="0.24"/>
<circle cx="154.016" cy="237.318" r="3.47236" transform="rotate(92 154.016 237.318)" fill="#106B3D" fill-opacity="0.24"/>
<circle cx="153.241" cy="221.664" r="3.47236" transform="rotate(82 153.241 221.664)" fill="#106B3D" fill-opacity="0.24"/>
<circle cx="149.765" cy="206.39" r="3.47236" transform="rotate(72 149.765 206.39)" fill="#106B3D" fill-opacity="0.24"/>
<circle cx="143.633" cy="191.928" r="3.47236" transform="rotate(62 143.633 191.928)" fill="#106B3D" fill-opacity="0.24"/>
<circle cx="135.09" cy="178.749" r="3.47236" transform="rotate(52 135.09 178.749)" fill="#106B3D" fill-opacity="0.24"/>
<circle cx="124.397" cy="167.253" r="3.47236" transform="rotate(42 124.397 167.253)" fill="#106B3D" fill-opacity="0.24"/>
<circle cx="111.879" cy="157.789" r="3.47236" transform="rotate(32 111.879 157.789)" fill="#106B3D" fill-opacity="0.24"/>
<circle cx="97.9151" cy="150.646" r="3.47236" transform="rotate(22 97.9151 150.646)" fill="#106B3D" fill-opacity="0.24"/>
<circle cx="82.9304" cy="146.039" r="3.47236" transform="rotate(12 82.9304 146.039)" fill="#106B3D" fill-opacity="0.24"/>
<circle cx="67.3803" cy="144.11" r="3.47236" transform="rotate(2 67.3803 144.11)" fill="#106B3D" fill-opacity="0.24"/>
<circle cx="51.7368" cy="144.916" r="3.47236" transform="rotate(-8 51.7368 144.916)" fill="#106B3D" fill-opacity="0.24"/>
<circle cx="36.476" cy="148.434" r="3.47236" transform="rotate(-18 36.476 148.434)" fill="#106B3D" fill-opacity="0.24"/>
<circle cx="12.502" cy="142.801" r="3.22433" transform="rotate(-29.5714 12.502 142.801)" fill="#106B3D" fill-opacity="0.24"/>
<circle cx="-0.542302" cy="151.503" r="3.22433" transform="rotate(-38.1429 -0.542302 151.503)" fill="#106B3D" fill-opacity="0.24"/>
<circle cx="-2.5782" cy="314.777" r="3.22433" transform="rotate(-141 -2.5782 314.777)" fill="#106B3D" fill-opacity="0.24"/>
<circle cx="10.2066" cy="323.719" r="3.22433" transform="rotate(-149.571 10.2066 323.719)" fill="#106B3D" fill-opacity="0.24"/>
<circle cx="24.2" cy="330.661" r="3.22433" transform="rotate(-158.143 24.2 330.661)" fill="#106B3D" fill-opacity="0.24"/>
<circle cx="39.0898" cy="335.447" r="3.22433" transform="rotate(-166.714 39.0898 335.447)" fill="#106B3D" fill-opacity="0.24"/>
<circle cx="54.5428" cy="337.969" r="3.22433" transform="rotate(-175.286 54.5428 337.969)" fill="#106B3D" fill-opacity="0.24"/>
<circle cx="70.214" cy="338.173" r="3.22433" transform="rotate(176.143 70.214 338.173)" fill="#106B3D" fill-opacity="0.24"/>
<circle cx="85.754" cy="336.052" r="3.22433" transform="rotate(167.571 85.754 336.052)" fill="#106B3D" fill-opacity="0.24"/>
<circle cx="100.815" cy="331.656" r="3.22433" transform="rotate(159 100.815 331.656)" fill="#106B3D" fill-opacity="0.24"/>
<circle cx="114.894" cy="325.007" r="3.22433" transform="rotate(150.429 114.894 325.007)" fill="#106B3D" fill-opacity="0.24"/>
<circle cx="127.844" cy="316.328" r="3.22433" transform="rotate(141.857 127.844 316.328)" fill="#106B3D" fill-opacity="0.24"/>
<circle cx="139.374" cy="305.814" r="3.22433" transform="rotate(133.286 139.374 305.814)" fill="#106B3D" fill-opacity="0.24"/>
<circle cx="149.228" cy="293.698" r="3.22433" transform="rotate(124.714 149.228 293.698)" fill="#106B3D" fill-opacity="0.24"/>
<circle cx="157.186" cy="280.253" r="3.22433" transform="rotate(116.143 157.186 280.253)" fill="#106B3D" fill-opacity="0.24"/>
<circle cx="163.068" cy="265.777" r="3.22433" transform="rotate(107.571 163.068 265.777)" fill="#106B3D" fill-opacity="0.24"/>
<circle cx="166.745" cy="250.595" r="3.22433" transform="rotate(99 166.745 250.595)" fill="#106B3D" fill-opacity="0.24"/>
<circle cx="168.133" cy="235.045" r="3.22433" transform="rotate(90.4286 168.133 235.045)" fill="#106B3D" fill-opacity="0.24"/>
<circle cx="167.203" cy="219.475" r="3.22433" transform="rotate(81.8571 167.203 219.475)" fill="#106B3D" fill-opacity="0.24"/>
<circle cx="163.973" cy="204.233" r="3.22433" transform="rotate(73.2857 163.973 204.233)" fill="#106B3D" fill-opacity="0.24"/>
<circle cx="158.435" cy="189.622" r="3.22433" transform="rotate(64.7143 158.435 189.622)" fill="#106B3D" fill-opacity="0.24"/>
<circle cx="150.711" cy="175.968" r="3.22433" transform="rotate(56.1429 150.711 175.968)" fill="#106B3D" fill-opacity="0.24"/>
<circle cx="141.057" cy="163.615" r="3.22433" transform="rotate(47.5714 141.057 163.615)" fill="#106B3D" fill-opacity="0.24"/>
<circle cx="129.804" cy="152.792" r="3.22433" transform="rotate(39 129.804 152.792)" fill="#106B3D" fill-opacity="0.24"/>
<circle cx="116.964" cy="143.834" r="3.22433" transform="rotate(30.4286 116.964 143.834)" fill="#106B3D" fill-opacity="0.24"/>
<circle cx="102.949" cy="136.894" r="3.22433" transform="rotate(21.8571 102.949 136.894)" fill="#106B3D" fill-opacity="0.24"/>
<circle cx="88.0699" cy="132.126" r="3.22433" transform="rotate(13.2857 88.0699 132.126)" fill="#106B3D" fill-opacity="0.24"/>
<circle cx="72.6606" cy="129.637" r="3.22433" transform="rotate(4.71428 72.6606 129.637)" fill="#106B3D" fill-opacity="0.24"/>
<circle cx="57.0648" cy="129.483" r="3.22433" transform="rotate(-3.85714 57.0648 129.483)" fill="#106B3D" fill-opacity="0.24"/>
<circle cx="41.6308" cy="131.666" r="3.22433" transform="rotate(-12.4286 41.6308 131.666)" fill="#106B3D" fill-opacity="0.24"/>
<circle cx="26.704" cy="136.139" r="3.22433" transform="rotate(-21 26.704 136.139)" fill="#106B3D" fill-opacity="0.24"/>
<circle cx="1.6734" cy="131.881" r="2.97631" transform="rotate(-31.5 1.6734 131.881)" fill="#106B3D" fill-opacity="0.24"/>
<circle cx="6.3707" cy="338.755" r="2.97631" transform="rotate(-151.5 6.3707 338.755)" fill="#106B3D" fill-opacity="0.24"/>
<circle cx="20.5412" cy="345.338" r="2.97631" transform="rotate(-159 20.5412 345.338)" fill="#106B3D" fill-opacity="0.24"/>
<circle cx="35.4611" cy="350.018" r="2.97631" transform="rotate(-166.5 35.4611 350.018)" fill="#106B3D" fill-opacity="0.24"/>
<circle cx="50.8743" cy="352.716" r="2.97631" transform="rotate(-174 50.8743 352.716)" fill="#106B3D" fill-opacity="0.24"/>
<circle cx="66.5176" cy="353.385" r="2.97631" transform="rotate(178.5 66.5176 353.385)" fill="#106B3D" fill-opacity="0.24"/>
<circle cx="82.1231" cy="352.013" r="2.97631" transform="rotate(171 82.1231 352.013)" fill="#106B3D" fill-opacity="0.24"/>
<circle cx="97.424" cy="348.626" r="2.97631" transform="rotate(163.5 97.424 348.626)" fill="#106B3D" fill-opacity="0.24"/>
<circle cx="112.159" cy="343.279" r="2.97631" transform="rotate(156 112.159 343.279)" fill="#106B3D" fill-opacity="0.24"/>
<circle cx="125.958" cy="336.02" r="2.97631" transform="rotate(148.5 125.958 336.02)" fill="#106B3D" fill-opacity="0.24"/>
<circle cx="138.703" cy="327.019" r="2.97631" transform="rotate(141 138.703 327.019)" fill="#106B3D" fill-opacity="0.24"/>
<circle cx="150.176" cy="316.427" r="2.97631" transform="rotate(133.5 150.176 316.427)" fill="#106B3D" fill-opacity="0.24"/>
<circle cx="160.179" cy="304.429" r="2.97631" transform="rotate(126 160.179 304.429)" fill="#106B3D" fill-opacity="0.24"/>
<circle cx="168.542" cy="291.227" r="2.97631" transform="rotate(118.5 168.542 291.227)" fill="#106B3D" fill-opacity="0.24"/>
<circle cx="175.121" cy="277.049" r="2.97631" transform="rotate(111 175.121 277.049)" fill="#106B3D" fill-opacity="0.24"/>
<circle cx="179.805" cy="262.137" r="2.97631" transform="rotate(103.5 179.805 262.137)" fill="#106B3D" fill-opacity="0.24"/>
<circle cx="182.513" cy="246.746" r="2.97631" transform="rotate(96 182.513 246.746)" fill="#106B3D" fill-opacity="0.24"/>
<circle cx="183.198" cy="231.139" r="2.97631" transform="rotate(88.5 183.198 231.139)" fill="#106B3D" fill-opacity="0.24"/>
<circle cx="181.849" cy="215.584" r="2.97631" transform="rotate(81 181.849 215.584)" fill="#106B3D" fill-opacity="0.24"/>
<circle cx="178.489" cy="200.347" r="2.97631" transform="rotate(73.5 178.489 200.347)" fill="#106B3D" fill-opacity="0.24"/>
<circle cx="173.176" cy="185.687" r="2.97631" transform="rotate(66 173.176 185.687)" fill="#106B3D" fill-opacity="0.24"/>
<circle cx="165.884" cy="171.812" r="2.97631" transform="rotate(58.5 165.884 171.812)" fill="#106B3D" fill-opacity="0.24"/>
<circle cx="156.854" cy="159.004" r="2.97631" transform="rotate(51 156.854 159.004)" fill="#106B3D" fill-opacity="0.24"/>
<circle cx="146.136" cy="147.528" r="2.97631" transform="rotate(43.5 146.136 147.528)" fill="#106B3D" fill-opacity="0.24"/>
<circle cx="134.127" cy="137.485" r="2.97631" transform="rotate(36 134.127 137.485)" fill="#106B3D" fill-opacity="0.24"/>
<circle cx="120.924" cy="129.096" r="2.97631" transform="rotate(28.5 120.924 129.096)" fill="#106B3D" fill-opacity="0.24"/>
<circle cx="106.753" cy="122.505" r="2.97631" transform="rotate(21 106.753 122.505)" fill="#106B3D" fill-opacity="0.24"/>
<circle cx="91.8548" cy="117.824" r="2.97631" transform="rotate(13.5 91.8548 117.824)" fill="#106B3D" fill-opacity="0.24"/>
<circle cx="76.4861" cy="115.133" r="2.97631" transform="rotate(6 76.4861 115.133)" fill="#106B3D" fill-opacity="0.24"/>
<circle cx="60.9089" cy="114.478" r="2.97631" transform="rotate(-1.5 60.9089 114.478)" fill="#106B3D" fill-opacity="0.24"/>
<circle cx="45.3904" cy="115.871" r="2.97631" transform="rotate(-9 45.3904 115.871)" fill="#106B3D" fill-opacity="0.24"/>
<circle cx="30.1954" cy="119.288" r="2.97631" transform="rotate(-16.5 30.1954 119.288)" fill="#106B3D" fill-opacity="0.24"/>
<circle cx="15.5841" cy="124.67" r="2.97631" transform="rotate(-24 15.5841 124.67)" fill="#106B3D" fill-opacity="0.24"/>
<circle cx="3.63007" cy="354.074" r="2.72828" transform="rotate(-153.667 3.63007 354.074)" fill="#106B3D" fill-opacity="0.24"/>
<circle cx="17.9789" cy="360.217" r="2.72828" transform="rotate(-160.333 17.9789 360.217)" fill="#106B3D" fill-opacity="0.24"/>
<circle cx="32.9546" cy="364.655" r="2.72828" transform="rotate(-167 32.9546 364.655)" fill="#106B3D" fill-opacity="0.24"/>
<circle cx="48.354" cy="367.328" r="2.72828" transform="rotate(-173.667 48.354 367.328)" fill="#106B3D" fill-opacity="0.24"/>
<circle cx="63.9695" cy="368.2" r="2.72828" transform="rotate(179.667 63.9695 368.2)" fill="#106B3D" fill-opacity="0.24"/>
<circle cx="79.5897" cy="367.259" r="2.72828" transform="rotate(173 79.5897 367.259)" fill="#106B3D" fill-opacity="0.24"/>
<circle cx="95.0029" cy="364.518" r="2.72828" transform="rotate(166.333 95.0029 364.518)" fill="#106B3D" fill-opacity="0.24"/>
<circle cx="110.002" cy="360.014" r="2.72828" transform="rotate(159.667 110.002 360.014)" fill="#106B3D" fill-opacity="0.24"/>
<circle cx="124.382" cy="353.808" r="2.72828" transform="rotate(153 124.382 353.808)" fill="#106B3D" fill-opacity="0.24"/>
<circle cx="137.826" cy="345.943" r="2.72828" transform="rotate(146.333 137.826 345.943)" fill="#106B3D" fill-opacity="0.24"/>
<circle cx="150.276" cy="336.566" r="2.72828" transform="rotate(139.667 150.276 336.566)" fill="#106B3D" fill-opacity="0.24"/>
<circle cx="161.563" cy="325.805" r="2.72828" transform="rotate(133 161.563 325.805)" fill="#106B3D" fill-opacity="0.24"/>
<circle cx="171.535" cy="313.803" r="2.72828" transform="rotate(126.333 171.535 313.803)" fill="#106B3D" fill-opacity="0.24"/>
<circle cx="180.058" cy="300.724" r="2.72828" transform="rotate(119.667 180.058 300.724)" fill="#106B3D" fill-opacity="0.24"/>
<circle cx="187.015" cy="286.745" r="2.72828" transform="rotate(113 187.015 286.745)" fill="#106B3D" fill-opacity="0.24"/>
<circle cx="192.312" cy="272.055" r="2.72828" transform="rotate(106.333 192.312 272.055)" fill="#106B3D" fill-opacity="0.24"/>
<circle cx="195.879" cy="256.852" r="2.72828" transform="rotate(99.6667 195.879 256.852)" fill="#106B3D" fill-opacity="0.24"/>
<circle cx="197.667" cy="241.342" r="2.72828" transform="rotate(93 197.667 241.342)" fill="#106B3D" fill-opacity="0.24"/>
<circle cx="197.651" cy="225.735" r="2.72828" transform="rotate(86.3333 197.651 225.735)" fill="#106B3D" fill-opacity="0.24"/>
<circle cx="195.832" cy="210.241" r="2.72828" transform="rotate(79.6667 195.832 210.241)" fill="#106B3D" fill-opacity="0.24"/>
<circle cx="192.235" cy="195.071" r="2.72828" transform="rotate(73 192.235 195.071)" fill="#106B3D" fill-opacity="0.24"/>
<circle cx="186.908" cy="180.428" r="2.72828" transform="rotate(66.3333 186.908 180.428)" fill="#106B3D" fill-opacity="0.24"/>
<circle cx="179.86" cy="166.493" r="2.72828" transform="rotate(59.6667 179.86 166.493)" fill="#106B3D" fill-opacity="0.24"/>
<circle cx="171.188" cy="153.451" r="2.72828" transform="rotate(53 171.188 153.451)" fill="#106B3D" fill-opacity="0.24"/>
<circle cx="161.07" cy="141.501" r="2.72828" transform="rotate(46.3333 161.07 141.501)" fill="#106B3D" fill-opacity="0.24"/>
<circle cx="149.746" cy="130.752" r="2.72828" transform="rotate(39.6667 149.746 130.752)" fill="#106B3D" fill-opacity="0.24"/>
<circle cx="137.403" cy="121.332" r="2.72828" transform="rotate(33 137.403 121.332)" fill="#106B3D" fill-opacity="0.24"/>
<circle cx="123.815" cy="113.568" r="2.72828" transform="rotate(26.3333 123.815 113.568)" fill="#106B3D" fill-opacity="0.24"/>
<circle cx="109.421" cy="107.435" r="2.72828" transform="rotate(19.6667 109.421 107.435)" fill="#106B3D" fill-opacity="0.24"/>
<circle cx="94.4177" cy="103.015" r="2.72828" transform="rotate(13 94.4177 103.015)" fill="#106B3D" fill-opacity="0.24"/>
<circle cx="79.0071" cy="100.369" r="2.72828" transform="rotate(6.33333 79.0071 100.369)" fill="#106B3D" fill-opacity="0.24"/>
<circle cx="63.3979" cy="99.5322" r="2.72828" transform="rotate(-0.333334 63.3979 99.5322)" fill="#106B3D" fill-opacity="0.24"/>
<circle cx="47.8012" cy="100.516" r="2.72828" transform="rotate(-7 47.8012 100.516)" fill="#106B3D" fill-opacity="0.24"/>
<circle cx="32.428" cy="103.306" r="2.72828" transform="rotate(-13.6667 32.428 103.306)" fill="#106B3D" fill-opacity="0.24"/>
<circle cx="17.4858" cy="107.866" r="2.72828" transform="rotate(-20.3333 17.4858 107.866)" fill="#106B3D" fill-opacity="0.24"/>
<circle cx="3.17685" cy="114.133" r="2.72828" transform="rotate(-27 3.17685 114.133)" fill="#106B3D" fill-opacity="0.24"/>
<circle cx="138.591" cy="363.527" r="2.48026" transform="rotate(150 138.591 363.527)" fill="#106B3D" fill-opacity="0.24"/>
<circle cx="151.69" cy="355.022" r="2.48026" transform="rotate(144 151.69 355.022)" fill="#106B3D" fill-opacity="0.24"/>
<circle cx="163.831" cy="345.193" r="2.48026" transform="rotate(138 163.831 345.193)" fill="#106B3D" fill-opacity="0.24"/>
<circle cx="174.882" cy="334.147" r="2.48026" transform="rotate(132 174.882 334.147)" fill="#106B3D" fill-opacity="0.24"/>
<circle cx="184.722" cy="322.005" r="2.48026" transform="rotate(126 184.722 322.005)" fill="#106B3D" fill-opacity="0.24"/>
<circle cx="193.242" cy="308.901" r="2.48026" transform="rotate(120 193.242 308.901)" fill="#106B3D" fill-opacity="0.24"/>
<circle cx="200.35" cy="294.977" r="2.48026" transform="rotate(114 200.35 294.977)" fill="#106B3D" fill-opacity="0.24"/>
<circle cx="205.967" cy="280.388" r="2.48026" transform="rotate(108 205.967 280.388)" fill="#106B3D" fill-opacity="0.24"/>
<circle cx="210.033" cy="265.291" r="2.48026" transform="rotate(102 210.033 265.291)" fill="#106B3D" fill-opacity="0.24"/>
<circle cx="212.502" cy="249.853" r="2.48025" transform="rotate(96 212.502 249.853)" fill="#106B3D" fill-opacity="0.24"/>
<circle cx="213.347" cy="234.243" r="2.48026" transform="rotate(90 213.347 234.243)" fill="#106B3D" fill-opacity="0.24"/>
<circle cx="212.559" cy="218.632" r="2.48026" transform="rotate(84 212.559 218.632)" fill="#106B3D" fill-opacity="0.24"/>
<circle cx="210.148" cy="203.191" r="2.48026" transform="rotate(78 210.148 203.191)" fill="#106B3D" fill-opacity="0.24"/>
<circle cx="206.139" cy="188.089" r="2.48026" transform="rotate(72 206.139 188.089)" fill="#106B3D" fill-opacity="0.24"/>
<circle cx="200.576" cy="173.492" r="2.48026" transform="rotate(66 200.576 173.492)" fill="#106B3D" fill-opacity="0.24"/>
<circle cx="193.52" cy="159.56" r="2.48026" transform="rotate(60 193.52 159.56)" fill="#106B3D" fill-opacity="0.24"/>
<circle cx="184.996" cy="146.43" r="2.48026" transform="rotate(54 184.996 146.43)" fill="#106B3D" fill-opacity="0.24"/>
<circle cx="175.152" cy="134.262" r="2.48026" transform="rotate(48 175.152 134.262)" fill="#106B3D" fill-opacity="0.24"/>
<circle cx="164.092" cy="123.188" r="2.48026" transform="rotate(42 164.092 123.188)" fill="#106B3D" fill-opacity="0.24"/>
<circle cx="151.94" cy="113.33" r="2.48026" transform="rotate(36 151.94 113.33)" fill="#106B3D" fill-opacity="0.24"/>
<circle cx="138.827" cy="104.795" r="2.48026" transform="rotate(30 138.827 104.795)" fill="#106B3D" fill-opacity="0.24"/>
<circle cx="124.898" cy="97.678" r="2.48026" transform="rotate(24 124.898 97.678)" fill="#106B3D" fill-opacity="0.24"/>
<circle cx="110.306" cy="92.0557" r="2.48026" transform="rotate(18 110.306 92.0557)" fill="#106B3D" fill-opacity="0.24"/>
<circle cx="95.209" cy="87.9901" r="2.48026" transform="rotate(12 95.209 87.9901)" fill="#106B3D" fill-opacity="0.24"/>
<circle cx="79.7741" cy="85.526" r="2.48025" transform="rotate(6 79.7741 85.526)" fill="#106B3D" fill-opacity="0.24"/>
<circle cx="64.1697" cy="84.6902" r="2.48026" fill="#106B3D" fill-opacity="0.24"/>
<circle cx="48.567" cy="85.4921" r="2.48026" transform="rotate(-6 48.567 85.4921)" fill="#106B3D" fill-opacity="0.24"/>
<circle cx="33.1368" cy="87.9221" r="2.48026" transform="rotate(-12 33.1368 87.9221)" fill="#106B3D" fill-opacity="0.24"/>
<circle cx="18.0482" cy="91.9545" r="2.48026" transform="rotate(-18 18.0482 91.9545)" fill="#106B3D" fill-opacity="0.24"/>
<circle cx="3.46653" cy="97.5449" r="2.48026" transform="rotate(-24 3.46653 97.5449)" fill="#106B3D" fill-opacity="0.24"/>
<circle cx="166.125" cy="362.823" r="2.23223" transform="rotate(141.545 166.125 362.823)" fill="#106B3D" fill-opacity="0.24"/>
<circle cx="177.883" cy="352.538" r="2.23223" transform="rotate(136.091 177.883 352.538)" fill="#106B3D" fill-opacity="0.24"/>
<circle cx="188.613" cy="341.181" r="2.23223" transform="rotate(130.636 188.613 341.181)" fill="#106B3D" fill-opacity="0.24"/>
<circle cx="198.216" cy="328.854" r="2.23223" transform="rotate(125.182 198.216 328.854)" fill="#106B3D" fill-opacity="0.24"/>
<circle cx="206.607" cy="315.671" r="2.23223" transform="rotate(119.727 206.607 315.671)" fill="#106B3D" fill-opacity="0.24"/>
<circle cx="213.71" cy="301.748" r="2.23223" transform="rotate(114.273 213.71 301.748)" fill="#106B3D" fill-opacity="0.24"/>
<circle cx="219.459" cy="287.214" r="2.23223" transform="rotate(108.818 219.459 287.214)" fill="#106B3D" fill-opacity="0.24"/>
<circle cx="223.804" cy="272.199" r="2.23223" transform="rotate(103.364 223.804 272.199)" fill="#106B3D" fill-opacity="0.24"/>
<circle cx="226.704" cy="256.839" r="2.23223" transform="rotate(97.9091 226.704 256.839)" fill="#106B3D" fill-opacity="0.24"/>
<circle cx="228.134" cy="241.273" r="2.23223" transform="rotate(92.4545 228.134 241.273)" fill="#106B3D" fill-opacity="0.24"/>
<circle cx="228.08" cy="225.644" r="2.23223" transform="rotate(87 228.08 225.644)" fill="#106B3D" fill-opacity="0.24"/>
<circle cx="226.542" cy="210.091" r="2.23223" transform="rotate(81.5455 226.542 210.091)" fill="#106B3D" fill-opacity="0.24"/>
<circle cx="223.536" cy="194.756" r="2.23223" transform="rotate(76.0909 223.536 194.756)" fill="#106B3D" fill-opacity="0.24"/>
<circle cx="219.088" cy="179.777" r="2.23223" transform="rotate(70.6364 219.088 179.777)" fill="#106B3D" fill-opacity="0.24"/>
<circle cx="213.239" cy="165.292" r="2.23223" transform="rotate(65.1818 213.239 165.292)" fill="#106B3D" fill-opacity="0.24"/>
<circle cx="206.04" cy="151.429" r="2.23223" transform="rotate(59.7273 206.04 151.429)" fill="#106B3D" fill-opacity="0.24"/>
<circle cx="197.539" cy="138.312" r="2.23223" transform="rotate(54.2727 197.539 138.312)" fill="#106B3D" fill-opacity="0.24"/>
<circle cx="187.812" cy="126.059" r="2.23223" transform="rotate(48.8182 187.812 126.059)" fill="#106B3D" fill-opacity="0.24"/>
<circle cx="176.967" cy="114.783" r="2.23223" transform="rotate(43.3636 176.967 114.783)" fill="#106B3D" fill-opacity="0.24"/>
<circle cx="165.102" cy="104.59" r="2.23223" transform="rotate(37.9091 165.102 104.59)" fill="#106B3D" fill-opacity="0.24"/>
<circle cx="152.324" cy="95.5695" r="2.23223" transform="rotate(32.4545 152.324 95.5695)" fill="#106B3D" fill-opacity="0.24"/>
<circle cx="138.749" cy="87.8039" r="2.23223" transform="rotate(27 138.749 87.8039)" fill="#106B3D" fill-opacity="0.24"/>
<circle cx="124.5" cy="81.3635" r="2.23223" transform="rotate(21.5455 124.5 81.3635)" fill="#106B3D" fill-opacity="0.24"/>
<circle cx="109.706" cy="76.3072" r="2.23223" transform="rotate(16.0909 109.706 76.3072)" fill="#106B3D" fill-opacity="0.24"/>
<circle cx="94.5004" cy="72.6799" r="2.23223" transform="rotate(10.6364 94.5004 72.6799)" fill="#106B3D" fill-opacity="0.24"/>
<circle cx="79.022" cy="70.5148" r="2.23223" transform="rotate(5.18182 79.022 70.5148)" fill="#106B3D" fill-opacity="0.24"/>
<circle cx="63.4103" cy="69.8317" r="2.23223" transform="rotate(-0.272725 63.4103 69.8317)" fill="#106B3D" fill-opacity="0.24"/>
<circle cx="47.8066" cy="70.6365" r="2.23223" transform="rotate(-5.72727 47.8066 70.6365)" fill="#106B3D" fill-opacity="0.24"/>
<circle cx="32.353" cy="72.9223" r="2.23223" transform="rotate(-11.1818 32.353 72.9223)" fill="#106B3D" fill-opacity="0.24"/>
<circle cx="17.1885" cy="76.6679" r="2.23223" transform="rotate(-16.6364 17.1885 76.6679)" fill="#106B3D" fill-opacity="0.24"/>
<circle cx="2.45057" cy="81.84" r="2.23223" transform="rotate(-22.0909 2.45057 81.84)" fill="#106B3D" fill-opacity="0.24"/>
</svg>
