<svg width="324" height="335" viewBox="0 0 324 335" fill="none" xmlns="http://www.w3.org/2000/svg">
<circle cx="234.325" cy="233.164" r="4.96051" fill="#106B3D" fill-opacity="0.24"/>
<circle cx="220.201" cy="226.811" r="4.71249" transform="rotate(-63 220.201 226.811)" fill="#106B3D" fill-opacity="0.24"/>
<circle cx="221.017" cy="242.549" r="4.71249" transform="rotate(-123 221.017 242.549)" fill="#106B3D" fill-opacity="0.24"/>
<circle cx="234.971" cy="249.813" r="4.71249" transform="rotate(177 234.971 249.813)" fill="#106B3D" fill-opacity="0.24"/>
<circle cx="248.205" cy="241.276" r="4.71249" transform="rotate(117 248.205 241.276)" fill="#106B3D" fill-opacity="0.24"/>
<circle cx="247.468" cy="225.533" r="4.71249" transform="rotate(57 247.468 225.533)" fill="#106B3D" fill-opacity="0.24"/>
<circle cx="233.496" cy="218.329" r="4.71249" transform="rotate(-3 233.496 218.329)" fill="#106B3D" fill-opacity="0.24"/>
<circle cx="216.273" cy="209.23" r="4.46446" transform="rotate(-36 216.273 209.23)" fill="#106B3D" fill-opacity="0.24"/>
<circle cx="206.265" cy="221.517" r="4.46446" transform="rotate(-66 206.265 221.517)" fill="#106B3D" fill-opacity="0.24"/>
<circle cx="203.773" cy="237.189" r="4.46446" transform="rotate(-96 203.773 237.189)" fill="#106B3D" fill-opacity="0.24"/>
<circle cx="209.378" cy="251.974" r="4.46446" transform="rotate(-126 209.378 251.974)" fill="#106B3D" fill-opacity="0.24"/>
<circle cx="221.666" cy="261.983" r="4.46446" transform="rotate(-156 221.666 261.983)" fill="#106B3D" fill-opacity="0.24"/>
<circle cx="237.343" cy="264.533" r="4.46446" transform="rotate(174 237.343 264.533)" fill="#106B3D" fill-opacity="0.24"/>
<circle cx="252.123" cy="258.869" r="4.46446" transform="rotate(144 252.123 258.869)" fill="#106B3D" fill-opacity="0.24"/>
<circle cx="262.131" cy="246.582" r="4.46446" transform="rotate(114 262.131 246.582)" fill="#106B3D" fill-opacity="0.24"/>
<circle cx="264.687" cy="230.962" r="4.46446" transform="rotate(84 264.687 230.962)" fill="#106B3D" fill-opacity="0.24"/>
<circle cx="259.018" cy="216.125" r="4.46446" transform="rotate(54 259.018 216.125)" fill="#106B3D" fill-opacity="0.24"/>
<circle cx="246.73" cy="206.116" r="4.46446" transform="rotate(24 246.73 206.116)" fill="#106B3D" fill-opacity="0.24"/>
<circle cx="231.116" cy="203.618" r="4.46446" transform="rotate(-6 231.116 203.618)" fill="#106B3D" fill-opacity="0.24"/>
<circle cx="212.23" cy="194.249" r="4.21643" transform="rotate(-29 212.23 194.249)" fill="#106B3D" fill-opacity="0.24"/>
<circle cx="199.926" cy="204.155" r="4.21643" transform="rotate(-49 199.926 204.155)" fill="#106B3D" fill-opacity="0.24"/>
<circle cx="191.771" cy="217.679" r="4.21643" transform="rotate(-69 191.771 217.679)" fill="#106B3D" fill-opacity="0.24"/>
<circle cx="188.746" cy="233.189" r="4.21644" transform="rotate(-89 188.746 233.189)" fill="#106B3D" fill-opacity="0.24"/>
<circle cx="191.214" cy="248.787" r="4.21643" transform="rotate(-109 191.214 248.787)" fill="#106B3D" fill-opacity="0.24"/>
<circle cx="198.798" cy="262.605" r="4.21643" transform="rotate(-129 198.798 262.605)" fill="#106B3D" fill-opacity="0.24"/>
<circle cx="210.693" cy="272.986" r="4.21643" transform="rotate(-149 210.693 272.986)" fill="#106B3D" fill-opacity="0.24"/>
<circle cx="225.437" cy="278.681" r="4.21643" transform="rotate(-169 225.437 278.681)" fill="#106B3D" fill-opacity="0.24"/>
<circle cx="241.252" cy="279.006" r="4.21643" transform="rotate(171 241.252 279.006)" fill="#106B3D" fill-opacity="0.24"/>
<circle cx="256.168" cy="273.874" r="4.21643" transform="rotate(151 256.168 273.874)" fill="#106B3D" fill-opacity="0.24"/>
<circle cx="268.448" cy="263.951" r="4.21643" transform="rotate(131 268.448 263.951)" fill="#106B3D" fill-opacity="0.24"/>
<circle cx="276.611" cy="250.433" r="4.21643" transform="rotate(111 276.611 250.433)" fill="#106B3D" fill-opacity="0.24"/>
<circle cx="279.674" cy="234.95" r="4.21644" transform="rotate(91 279.674 234.95)" fill="#106B3D" fill-opacity="0.24"/>
<circle cx="277.233" cy="219.348" r="4.21643" transform="rotate(71 277.233 219.348)" fill="#106B3D" fill-opacity="0.24"/>
<circle cx="269.584" cy="205.507" r="4.21643" transform="rotate(51 269.584 205.507)" fill="#106B3D" fill-opacity="0.24"/>
<circle cx="257.682" cy="195.121" r="4.21643" transform="rotate(31 257.682 195.121)" fill="#106B3D" fill-opacity="0.24"/>
<circle cx="242.961" cy="189.442" r="4.21643" transform="rotate(11 242.961 189.442)" fill="#106B3D" fill-opacity="0.24"/>
<circle cx="227.197" cy="189.154" r="4.21643" transform="rotate(-9 227.197 189.154)" fill="#106B3D" fill-opacity="0.24"/>
<circle cx="206.891" cy="180.279" r="3.96841" transform="rotate(-27 206.891 180.279)" fill="#106B3D" fill-opacity="0.24"/>
<circle cx="193.886" cy="189.171" r="3.96841" transform="rotate(-42 193.886 189.171)" fill="#106B3D" fill-opacity="0.24"/>
<circle cx="183.636" cy="201.13" r="3.96841" transform="rotate(-57 183.636 201.13)" fill="#106B3D" fill-opacity="0.24"/>
<circle cx="176.84" cy="215.337" r="3.96841" transform="rotate(-72 176.84 215.337)" fill="#106B3D" fill-opacity="0.24"/>
<circle cx="173.965" cy="230.85" r="3.96841" transform="rotate(-87 173.965 230.85)" fill="#106B3D" fill-opacity="0.24"/>
<circle cx="175.199" cy="246.566" r="3.96841" transform="rotate(-102 175.199 246.566)" fill="#106B3D" fill-opacity="0.24"/>
<circle cx="180.422" cy="261.41" r="3.96841" transform="rotate(-117 180.422 261.41)" fill="#106B3D" fill-opacity="0.24"/>
<circle cx="189.316" cy="274.396" r="3.96841" transform="rotate(-132 189.316 274.396)" fill="#106B3D" fill-opacity="0.24"/>
<circle cx="201.277" cy="284.637" r="3.96841" transform="rotate(-147 201.277 284.637)" fill="#106B3D" fill-opacity="0.24"/>
<circle cx="215.49" cy="291.439" r="3.96841" transform="rotate(-162 215.49 291.439)" fill="#106B3D" fill-opacity="0.24"/>
<circle cx="230.986" cy="294.337" r="3.96841" transform="rotate(-177 230.986 294.337)" fill="#106B3D" fill-opacity="0.24"/>
<circle cx="246.709" cy="293.131" r="3.96841" transform="rotate(168 246.709 293.131)" fill="#106B3D" fill-opacity="0.24"/>
<circle cx="261.546" cy="287.88" r="3.96841" transform="rotate(153 261.546 287.88)" fill="#106B3D" fill-opacity="0.24"/>
<circle cx="274.528" cy="278.967" r="3.96841" transform="rotate(138 274.528 278.967)" fill="#106B3D" fill-opacity="0.24"/>
<circle cx="284.769" cy="266.999" r="3.96841" transform="rotate(123 284.769 266.999)" fill="#106B3D" fill-opacity="0.24"/>
<circle cx="291.572" cy="252.793" r="3.96841" transform="rotate(108 291.572 252.793)" fill="#106B3D" fill-opacity="0.24"/>
<circle cx="294.473" cy="237.315" r="3.96841" transform="rotate(93 294.473 237.315)" fill="#106B3D" fill-opacity="0.24"/>
<circle cx="293.274" cy="221.622" r="3.96841" transform="rotate(78 293.274 221.622)" fill="#106B3D" fill-opacity="0.24"/>
<circle cx="288.017" cy="206.755" r="3.96841" transform="rotate(63 288.017 206.755)" fill="#106B3D" fill-opacity="0.24"/>
<circle cx="279.1" cy="193.755" r="3.96841" transform="rotate(48 279.1 193.755)" fill="#106B3D" fill-opacity="0.24"/>
<circle cx="267.131" cy="183.508" r="3.96841" transform="rotate(33 267.131 183.508)" fill="#106B3D" fill-opacity="0.24"/>
<circle cx="252.926" cy="176.711" r="3.96841" transform="rotate(18 252.926 176.711)" fill="#106B3D" fill-opacity="0.24"/>
<circle cx="237.452" cy="173.828" r="3.96841" transform="rotate(3 237.452 173.828)" fill="#106B3D" fill-opacity="0.24"/>
<circle cx="221.765" cy="175.057" r="3.96841" transform="rotate(-12 221.765 175.057)" fill="#106B3D" fill-opacity="0.24"/>
<circle cx="200.148" cy="167.055" r="3.72038" transform="rotate(-27 200.148 167.055)" fill="#106B3D" fill-opacity="0.24"/>
<circle cx="186.944" cy="175.597" r="3.72038" transform="rotate(-39 186.944 175.597)" fill="#106B3D" fill-opacity="0.24"/>
<circle cx="175.811" cy="186.699" r="3.72038" transform="rotate(-51 175.811 186.699)" fill="#106B3D" fill-opacity="0.24"/>
<circle cx="167.234" cy="199.873" r="3.72038" transform="rotate(-63 167.234 199.873)" fill="#106B3D" fill-opacity="0.24"/>
<circle cx="161.59" cy="214.546" r="3.72038" transform="rotate(-75 161.59 214.546)" fill="#106B3D" fill-opacity="0.24"/>
<circle cx="159.124" cy="230.076" r="3.72038" transform="rotate(-87 159.124 230.076)" fill="#106B3D" fill-opacity="0.24"/>
<circle cx="159.944" cy="245.782" r="3.72038" transform="rotate(-99 159.944 245.782)" fill="#106B3D" fill-opacity="0.24"/>
<circle cx="164.014" cy="260.967" r="3.72038" transform="rotate(-111 164.014 260.967)" fill="#106B3D" fill-opacity="0.24"/>
<circle cx="171.107" cy="274.978" r="3.72038" transform="rotate(-123 171.107 274.978)" fill="#106B3D" fill-opacity="0.24"/>
<circle cx="180.979" cy="287.2" r="3.72038" transform="rotate(-135 180.979 287.2)" fill="#106B3D" fill-opacity="0.24"/>
<circle cx="193.183" cy="297.103" r="3.72038" transform="rotate(-147 193.183 297.103)" fill="#106B3D" fill-opacity="0.24"/>
<circle cx="207.184" cy="304.255" r="3.72038" transform="rotate(-159 207.184 304.255)" fill="#106B3D" fill-opacity="0.24"/>
<circle cx="222.371" cy="308.342" r="3.72038" transform="rotate(-171 222.371 308.342)" fill="#106B3D" fill-opacity="0.24"/>
<circle cx="238.08" cy="309.187" r="3.72038" transform="rotate(177 238.08 309.187)" fill="#106B3D" fill-opacity="0.24"/>
<circle cx="253.624" cy="306.752" r="3.72038" transform="rotate(165 253.624 306.752)" fill="#106B3D" fill-opacity="0.24"/>
<circle cx="268.291" cy="301.124" r="3.72038" transform="rotate(153 268.291 301.124)" fill="#106B3D" fill-opacity="0.24"/>
<circle cx="281.473" cy="292.569" r="3.72038" transform="rotate(141 281.473 292.569)" fill="#106B3D" fill-opacity="0.24"/>
<circle cx="292.594" cy="281.461" r="3.72038" transform="rotate(129 292.594 281.461)" fill="#106B3D" fill-opacity="0.24"/>
<circle cx="301.167" cy="268.285" r="3.72038" transform="rotate(117 301.167 268.285)" fill="#106B3D" fill-opacity="0.24"/>
<circle cx="306.819" cy="253.616" r="3.72038" transform="rotate(105 306.819 253.616)" fill="#106B3D" fill-opacity="0.24"/>
<circle cx="309.303" cy="238.096" r="3.72038" transform="rotate(93 309.303 238.096)" fill="#106B3D" fill-opacity="0.24"/>
<circle cx="308.509" cy="222.405" r="3.72038" transform="rotate(81 308.509 222.405)" fill="#106B3D" fill-opacity="0.24"/>
<circle cx="304.455" cy="207.216" r="3.72038" transform="rotate(69 304.455 207.216)" fill="#106B3D" fill-opacity="0.24"/>
<circle cx="297.319" cy="193.194" r="3.72038" transform="rotate(57 297.319 193.194)" fill="#106B3D" fill-opacity="0.24"/>
<circle cx="287.43" cy="180.962" r="3.72038" transform="rotate(45 287.43 180.962)" fill="#106B3D" fill-opacity="0.24"/>
<circle cx="275.219" cy="171.055" r="3.72038" transform="rotate(33 275.219 171.055)" fill="#106B3D" fill-opacity="0.24"/>
<circle cx="261.22" cy="163.904" r="3.72038" transform="rotate(21 261.22 163.904)" fill="#106B3D" fill-opacity="0.24"/>
<circle cx="246.046" cy="159.824" r="3.72038" transform="rotate(9 246.046 159.824)" fill="#106B3D" fill-opacity="0.24"/>
<circle cx="230.359" cy="158.992" r="3.72038" transform="rotate(-3 230.359 158.992)" fill="#106B3D" fill-opacity="0.24"/>
<circle cx="214.845" cy="161.445" r="3.72038" transform="rotate(-15 214.845 161.445)" fill="#106B3D" fill-opacity="0.24"/>
<circle cx="192.008" cy="154.549" r="3.47236" transform="rotate(-28 192.008 154.549)" fill="#106B3D" fill-opacity="0.24"/>
<circle cx="178.826" cy="163.081" r="3.47236" transform="rotate(-38 178.826 163.081)" fill="#106B3D" fill-opacity="0.24"/>
<circle cx="167.329" cy="173.774" r="3.47236" transform="rotate(-48 167.329 173.774)" fill="#106B3D" fill-opacity="0.24"/>
<circle cx="157.869" cy="186.3" r="3.47236" transform="rotate(-58 157.869 186.3)" fill="#106B3D" fill-opacity="0.24"/>
<circle cx="150.731" cy="200.281" r="3.47236" transform="rotate(-68 150.731 200.281)" fill="#106B3D" fill-opacity="0.24"/>
<circle cx="146.132" cy="215.29" r="3.47236" transform="rotate(-78 146.132 215.29)" fill="#106B3D" fill-opacity="0.24"/>
<circle cx="144.213" cy="230.872" r="3.47236" transform="rotate(-88 144.213 230.872)" fill="#106B3D" fill-opacity="0.24"/>
<circle cx="144.989" cy="246.421" r="3.47236" transform="rotate(-98 144.989 246.421)" fill="#106B3D" fill-opacity="0.24"/>
<circle cx="148.52" cy="261.724" r="3.47236" transform="rotate(-108 148.52 261.724)" fill="#106B3D" fill-opacity="0.24"/>
<circle cx="154.597" cy="276.157" r="3.47236" transform="rotate(-118 154.597 276.157)" fill="#106B3D" fill-opacity="0.24"/>
<circle cx="163.097" cy="289.315" r="3.47236" transform="rotate(-128 163.097 289.315)" fill="#106B3D" fill-opacity="0.24"/>
<circle cx="173.761" cy="300.796" r="3.47236" transform="rotate(-138 173.761 300.796)" fill="#106B3D" fill-opacity="0.24"/>
<circle cx="186.265" cy="310.252" r="3.47236" transform="rotate(-148 186.265 310.252)" fill="#106B3D" fill-opacity="0.24"/>
<circle cx="200.228" cy="317.395" r="3.47236" transform="rotate(-158 200.228 317.395)" fill="#106B3D" fill-opacity="0.24"/>
<circle cx="215.228" cy="322.01" r="3.47236" transform="rotate(-168 215.228 322.01)" fill="#106B3D" fill-opacity="0.24"/>
<circle cx="230.807" cy="323.954" r="3.47236" transform="rotate(-178 230.807 323.954)" fill="#106B3D" fill-opacity="0.24"/>
<circle cx="246.494" cy="323.169" r="3.47236" transform="rotate(172 246.494 323.169)" fill="#106B3D" fill-opacity="0.24"/>
<circle cx="261.81" cy="319.679" r="3.47236" transform="rotate(162 261.81 319.679)" fill="#106B3D" fill-opacity="0.24"/>
<circle cx="276.23" cy="313.561" r="3.47236" transform="rotate(152 276.23 313.561)" fill="#106B3D" fill-opacity="0.24"/>
<circle cx="289.377" cy="305.029" r="3.47236" transform="rotate(142 289.377 305.029)" fill="#106B3D" fill-opacity="0.24"/>
<circle cx="300.851" cy="294.343" r="3.47236" transform="rotate(132 300.851 294.343)" fill="#106B3D" fill-opacity="0.24"/>
<circle cx="310.303" cy="281.828" r="3.47236" transform="rotate(122 310.303 281.828)" fill="#106B3D" fill-opacity="0.24"/>
<circle cx="317.447" cy="267.864" r="3.47236" transform="rotate(112 317.447 267.864)" fill="#106B3D" fill-opacity="0.24"/>
<circle cx="322.064" cy="252.875" r="3.47236" transform="rotate(102 322.064 252.875)" fill="#106B3D" fill-opacity="0.24"/>
<circle cx="324.016" cy="237.318" r="3.47236" transform="rotate(92 324.016 237.318)" fill="#106B3D" fill-opacity="0.24"/>
<circle cx="323.241" cy="221.665" r="3.47236" transform="rotate(82 323.241 221.665)" fill="#106B3D" fill-opacity="0.24"/>
<circle cx="319.765" cy="206.39" r="3.47236" transform="rotate(72 319.765 206.39)" fill="#106B3D" fill-opacity="0.24"/>
<circle cx="313.633" cy="191.928" r="3.47236" transform="rotate(62 313.633 191.928)" fill="#106B3D" fill-opacity="0.24"/>
<circle cx="305.09" cy="178.749" r="3.47236" transform="rotate(52 305.09 178.749)" fill="#106B3D" fill-opacity="0.24"/>
<circle cx="294.397" cy="167.253" r="3.47236" transform="rotate(42 294.397 167.253)" fill="#106B3D" fill-opacity="0.24"/>
<circle cx="281.879" cy="157.789" r="3.47236" transform="rotate(32 281.879 157.789)" fill="#106B3D" fill-opacity="0.24"/>
<circle cx="267.915" cy="150.646" r="3.47236" transform="rotate(22 267.915 150.646)" fill="#106B3D" fill-opacity="0.24"/>
<circle cx="252.93" cy="146.039" r="3.47236" transform="rotate(12 252.93 146.039)" fill="#106B3D" fill-opacity="0.24"/>
<circle cx="237.38" cy="144.11" r="3.47236" transform="rotate(2 237.38 144.11)" fill="#106B3D" fill-opacity="0.24"/>
<circle cx="221.737" cy="144.917" r="3.47236" transform="rotate(-8 221.737 144.917)" fill="#106B3D" fill-opacity="0.24"/>
<circle cx="206.476" cy="148.434" r="3.47236" transform="rotate(-18 206.476 148.434)" fill="#106B3D" fill-opacity="0.24"/>
<circle cx="182.502" cy="142.801" r="3.22433" transform="rotate(-29.5714 182.502 142.801)" fill="#106B3D" fill-opacity="0.24"/>
<circle cx="169.458" cy="151.503" r="3.22433" transform="rotate(-38.1429 169.458 151.503)" fill="#106B3D" fill-opacity="0.24"/>
<circle cx="157.862" cy="162.053" r="3.22433" transform="rotate(-46.7143 157.862 162.053)" fill="#106B3D" fill-opacity="0.24"/>
<circle cx="147.975" cy="174.211" r="3.22433" transform="rotate(-55.2857 147.975 174.211)" fill="#106B3D" fill-opacity="0.24"/>
<circle cx="139.873" cy="187.337" r="3.22433" transform="rotate(-63.8571 139.873 187.337)" fill="#106B3D" fill-opacity="0.24"/>
<circle cx="133.999" cy="201.817" r="3.22433" transform="rotate(-72.4286 133.999 201.817)" fill="#106B3D" fill-opacity="0.24"/>
<circle cx="130.366" cy="217.018" r="3.22433" transform="rotate(-81 130.366 217.018)" fill="#106B3D" fill-opacity="0.24"/>
<circle cx="129.055" cy="232.603" r="3.22433" transform="rotate(-89.5714 129.055 232.603)" fill="#106B3D" fill-opacity="0.24"/>
<circle cx="130.096" cy="248.222" r="3.22433" transform="rotate(-98.1429 130.096 248.222)" fill="#106B3D" fill-opacity="0.24"/>
<circle cx="133.465" cy="263.526" r="3.22433" transform="rotate(-106.714 133.465 263.526)" fill="#106B3D" fill-opacity="0.24"/>
<circle cx="139.063" cy="278.114" r="3.22433" transform="rotate(-115.286 139.063 278.114)" fill="#106B3D" fill-opacity="0.24"/>
<circle cx="146.588" cy="291.728" r="3.22433" transform="rotate(-123.857 146.588 291.728)" fill="#106B3D" fill-opacity="0.24"/>
<circle cx="156.131" cy="304.034" r="3.22433" transform="rotate(-132.429 156.131 304.034)" fill="#106B3D" fill-opacity="0.24"/>
<circle cx="167.422" cy="314.777" r="3.22433" transform="rotate(-141 167.422 314.777)" fill="#106B3D" fill-opacity="0.24"/>
<circle cx="180.207" cy="323.72" r="3.22433" transform="rotate(-149.571 180.207 323.72)" fill="#106B3D" fill-opacity="0.24"/>
<circle cx="194.2" cy="330.661" r="3.22433" transform="rotate(-158.143 194.2 330.661)" fill="#106B3D" fill-opacity="0.24"/>
<circle cx="209.09" cy="335.447" r="3.22433" transform="rotate(-166.714 209.09 335.447)" fill="#106B3D" fill-opacity="0.24"/>
<circle cx="224.543" cy="337.97" r="3.22433" transform="rotate(-175.286 224.543 337.97)" fill="#106B3D" fill-opacity="0.24"/>
<circle cx="240.214" cy="338.174" r="3.22433" transform="rotate(176.143 240.214 338.174)" fill="#106B3D" fill-opacity="0.24"/>
<circle cx="255.754" cy="336.053" r="3.22433" transform="rotate(167.571 255.754 336.053)" fill="#106B3D" fill-opacity="0.24"/>
<circle cx="270.815" cy="331.657" r="3.22433" transform="rotate(159 270.815 331.657)" fill="#106B3D" fill-opacity="0.24"/>
<circle cx="284.894" cy="325.007" r="3.22433" transform="rotate(150.429 284.894 325.007)" fill="#106B3D" fill-opacity="0.24"/>
<circle cx="297.844" cy="316.329" r="3.22433" transform="rotate(141.857 297.844 316.329)" fill="#106B3D" fill-opacity="0.24"/>
<circle cx="309.374" cy="305.814" r="3.22433" transform="rotate(133.286 309.374 305.814)" fill="#106B3D" fill-opacity="0.24"/>
<circle cx="319.228" cy="293.699" r="3.22433" transform="rotate(124.714 319.228 293.699)" fill="#106B3D" fill-opacity="0.24"/>
<circle cx="327.186" cy="280.253" r="3.22433" transform="rotate(116.143 327.186 280.253)" fill="#106B3D" fill-opacity="0.24"/>
<circle cx="320.711" cy="175.969" r="3.22433" transform="rotate(56.1429 320.711 175.969)" fill="#106B3D" fill-opacity="0.24"/>
<circle cx="311.057" cy="163.615" r="3.22433" transform="rotate(47.5714 311.057 163.615)" fill="#106B3D" fill-opacity="0.24"/>
<circle cx="299.804" cy="152.793" r="3.22433" transform="rotate(39 299.804 152.793)" fill="#106B3D" fill-opacity="0.24"/>
<circle cx="286.964" cy="143.835" r="3.22433" transform="rotate(30.4286 286.964 143.835)" fill="#106B3D" fill-opacity="0.24"/>
<circle cx="272.949" cy="136.895" r="3.22433" transform="rotate(21.8571 272.949 136.895)" fill="#106B3D" fill-opacity="0.24"/>
<circle cx="258.07" cy="132.127" r="3.22433" transform="rotate(13.2857 258.07 132.127)" fill="#106B3D" fill-opacity="0.24"/>
<circle cx="242.661" cy="129.638" r="3.22433" transform="rotate(4.71428 242.661 129.638)" fill="#106B3D" fill-opacity="0.24"/>
<circle cx="227.065" cy="129.483" r="3.22433" transform="rotate(-3.85714 227.065 129.483)" fill="#106B3D" fill-opacity="0.24"/>
<circle cx="211.631" cy="131.666" r="3.22433" transform="rotate(-12.4286 211.631 131.666)" fill="#106B3D" fill-opacity="0.24"/>
<circle cx="196.704" cy="136.139" r="3.22433" transform="rotate(-21 196.704 136.139)" fill="#106B3D" fill-opacity="0.24"/>
<circle cx="171.673" cy="131.882" r="2.97631" transform="rotate(-31.5 171.673 131.882)" fill="#106B3D" fill-opacity="0.24"/>
<circle cx="158.835" cy="140.843" r="2.97631" transform="rotate(-39 158.835 140.843)" fill="#106B3D" fill-opacity="0.24"/>
<circle cx="147.263" cy="151.346" r="2.97631" transform="rotate(-46.5 147.263 151.346)" fill="#106B3D" fill-opacity="0.24"/>
<circle cx="137.197" cy="163.302" r="2.97631" transform="rotate(-54 137.197 163.302)" fill="#106B3D" fill-opacity="0.24"/>
<circle cx="128.793" cy="176.472" r="2.97631" transform="rotate(-61.5 128.793 176.472)" fill="#106B3D" fill-opacity="0.24"/>
<circle cx="122.194" cy="190.627" r="2.97631" transform="rotate(-69 122.194 190.627)" fill="#106B3D" fill-opacity="0.24"/>
<circle cx="117.514" cy="205.527" r="2.97631" transform="rotate(-76.5 117.514 205.527)" fill="#106B3D" fill-opacity="0.24"/>
<circle cx="114.833" cy="220.917" r="2.97631" transform="rotate(-84 114.833 220.917)" fill="#106B3D" fill-opacity="0.24"/>
<circle cx="114.196" cy="236.533" r="2.97631" transform="rotate(-91.5 114.196 236.533)" fill="#106B3D" fill-opacity="0.24"/>
<circle cx="115.614" cy="252.109" r="2.97631" transform="rotate(-99 115.614 252.109)" fill="#106B3D" fill-opacity="0.24"/>
<circle cx="119.063" cy="267.377" r="2.97631" transform="rotate(-106.5 119.063 267.377)" fill="#106B3D" fill-opacity="0.24"/>
<circle cx="124.484" cy="282.076" r="2.97631" transform="rotate(-114 124.484 282.076)" fill="#106B3D" fill-opacity="0.24"/>
<circle cx="131.633" cy="295.898" r="2.97631" transform="rotate(-121.5 131.633 295.898)" fill="#106B3D" fill-opacity="0.24"/>
<circle cx="140.54" cy="308.663" r="2.97631" transform="rotate(-129 140.54 308.663)" fill="#106B3D" fill-opacity="0.24"/>
<circle cx="151.229" cy="320.363" r="2.97631" transform="rotate(-136.5 151.229 320.363)" fill="#106B3D" fill-opacity="0.24"/>
<circle cx="163.192" cy="330.382" r="2.97631" transform="rotate(-144 163.192 330.382)" fill="#106B3D" fill-opacity="0.24"/>
<circle cx="176.371" cy="338.755" r="2.97631" transform="rotate(-151.5 176.371 338.755)" fill="#106B3D" fill-opacity="0.24"/>
<circle cx="295.958" cy="336.02" r="2.97631" transform="rotate(148.5 295.958 336.02)" fill="#106B3D" fill-opacity="0.24"/>
<circle cx="308.703" cy="327.019" r="2.97631" transform="rotate(141 308.703 327.019)" fill="#106B3D" fill-opacity="0.24"/>
<circle cx="320.175" cy="316.428" r="2.97631" transform="rotate(133.5 320.175 316.428)" fill="#106B3D" fill-opacity="0.24"/>
<circle cx="326.854" cy="159.004" r="2.97631" transform="rotate(51 326.854 159.004)" fill="#106B3D" fill-opacity="0.24"/>
<circle cx="316.136" cy="147.528" r="2.97631" transform="rotate(43.5 316.136 147.528)" fill="#106B3D" fill-opacity="0.24"/>
<circle cx="304.127" cy="137.485" r="2.97631" transform="rotate(36 304.127 137.485)" fill="#106B3D" fill-opacity="0.24"/>
<circle cx="290.924" cy="129.096" r="2.97631" transform="rotate(28.5 290.924 129.096)" fill="#106B3D" fill-opacity="0.24"/>
<circle cx="276.753" cy="122.505" r="2.97631" transform="rotate(21 276.753 122.505)" fill="#106B3D" fill-opacity="0.24"/>
<circle cx="261.855" cy="117.824" r="2.97631" transform="rotate(13.5 261.855 117.824)" fill="#106B3D" fill-opacity="0.24"/>
<circle cx="246.486" cy="115.133" r="2.97631" transform="rotate(6 246.486 115.133)" fill="#106B3D" fill-opacity="0.24"/>
<circle cx="230.909" cy="114.478" r="2.97631" transform="rotate(-1.5 230.909 114.478)" fill="#106B3D" fill-opacity="0.24"/>
<circle cx="215.39" cy="115.872" r="2.97631" transform="rotate(-9 215.39 115.872)" fill="#106B3D" fill-opacity="0.24"/>
<circle cx="200.195" cy="119.288" r="2.97631" transform="rotate(-16.5 200.195 119.288)" fill="#106B3D" fill-opacity="0.24"/>
<circle cx="185.584" cy="124.67" r="2.97631" transform="rotate(-24 185.584 124.67)" fill="#106B3D" fill-opacity="0.24"/>
<circle cx="159.616" cy="121.96" r="2.72828" transform="rotate(-33.6667 159.616 121.96)" fill="#106B3D" fill-opacity="0.24"/>
<circle cx="147.065" cy="131.304" r="2.72828" transform="rotate(-40.3333 147.065 131.304)" fill="#106B3D" fill-opacity="0.24"/>
<circle cx="135.694" cy="142.039" r="2.72828" transform="rotate(-47 135.694 142.039)" fill="#106B3D" fill-opacity="0.24"/>
<circle cx="125.656" cy="154.019" r="2.72828" transform="rotate(-53.6667 125.656 154.019)" fill="#106B3D" fill-opacity="0.24"/>
<circle cx="117.088" cy="167.083" r="2.72828" transform="rotate(-60.3333 117.088 167.083)" fill="#106B3D" fill-opacity="0.24"/>
<circle cx="110.106" cy="181.054" r="2.72828" transform="rotate(-67 110.106 181.054)" fill="#106B3D" fill-opacity="0.24"/>
<circle cx="104.803" cy="195.742" r="2.72828" transform="rotate(-73.6667 104.803 195.742)" fill="#106B3D" fill-opacity="0.24"/>
<circle cx="101.251" cy="210.95" r="2.72828" transform="rotate(-80.3333 101.251 210.95)" fill="#106B3D" fill-opacity="0.24"/>
<circle cx="99.4994" cy="226.472" r="2.72828" transform="rotate(-87 99.4994 226.472)" fill="#106B3D" fill-opacity="0.24"/>
<circle cx="99.5707" cy="242.097" r="2.72828" transform="rotate(-93.6667 99.5707 242.097)" fill="#106B3D" fill-opacity="0.24"/>
<circle cx="101.464" cy="257.616" r="2.72828" transform="rotate(-100.333 101.464 257.616)" fill="#106B3D" fill-opacity="0.24"/>
<circle cx="105.154" cy="272.816" r="2.72828" transform="rotate(-107 105.154 272.816)" fill="#106B3D" fill-opacity="0.24"/>
<circle cx="110.591" cy="287.493" r="2.72828" transform="rotate(-113.667 110.591 287.493)" fill="#106B3D" fill-opacity="0.24"/>
<circle cx="117.68" cy="301.408" r="2.72828" transform="rotate(-120.333 117.68 301.408)" fill="#106B3D" fill-opacity="0.24"/>
<circle cx="126.201" cy="314.435" r="2.72828" transform="rotate(-127 126.201 314.435)" fill="#106B3D" fill-opacity="0.24"/>
<circle cx="136.226" cy="326.355" r="2.72828" transform="rotate(-133.667 136.226 326.355)" fill="#106B3D" fill-opacity="0.24"/>
<circle cx="147.578" cy="337.028" r="2.72828" transform="rotate(-140.333 147.578 337.028)" fill="#106B3D" fill-opacity="0.24"/>
<circle cx="320.276" cy="336.567" r="2.72828" transform="rotate(139.667 320.276 336.567)" fill="#106B3D" fill-opacity="0.24"/>
<circle cx="319.746" cy="130.753" r="2.72828" transform="rotate(39.6667 319.746 130.753)" fill="#106B3D" fill-opacity="0.24"/>
<circle cx="307.403" cy="121.332" r="2.72828" transform="rotate(33 307.403 121.332)" fill="#106B3D" fill-opacity="0.24"/>
<circle cx="293.815" cy="113.568" r="2.72828" transform="rotate(26.3333 293.815 113.568)" fill="#106B3D" fill-opacity="0.24"/>
<circle cx="279.421" cy="107.435" r="2.72828" transform="rotate(19.6667 279.421 107.435)" fill="#106B3D" fill-opacity="0.24"/>
<circle cx="264.418" cy="103.016" r="2.72828" transform="rotate(13 264.418 103.016)" fill="#106B3D" fill-opacity="0.24"/>
<circle cx="249.007" cy="100.37" r="2.72828" transform="rotate(6.33333 249.007 100.37)" fill="#106B3D" fill-opacity="0.24"/>
<circle cx="233.398" cy="99.5327" r="2.72828" transform="rotate(-0.333334 233.398 99.5327)" fill="#106B3D" fill-opacity="0.24"/>
<circle cx="217.801" cy="100.516" r="2.72828" transform="rotate(-7 217.801 100.516)" fill="#106B3D" fill-opacity="0.24"/>
<circle cx="202.428" cy="103.306" r="2.72828" transform="rotate(-13.6667 202.428 103.306)" fill="#106B3D" fill-opacity="0.24"/>
<circle cx="187.486" cy="107.866" r="2.72828" transform="rotate(-20.3333 187.486 107.866)" fill="#106B3D" fill-opacity="0.24"/>
<circle cx="173.177" cy="114.134" r="2.72828" transform="rotate(-27 173.177 114.134)" fill="#106B3D" fill-opacity="0.24"/>
<circle cx="146.405" cy="113.124" r="2.48026" transform="rotate(-36 146.405 113.124)" fill="#106B3D" fill-opacity="0.24"/>
<circle cx="134.221" cy="122.942" r="2.48026" transform="rotate(-42 134.221 122.942)" fill="#106B3D" fill-opacity="0.24"/>
<circle cx="123.133" cy="133.979" r="2.48026" transform="rotate(-48 123.133 133.979)" fill="#106B3D" fill-opacity="0.24"/>
<circle cx="113.264" cy="146.112" r="2.48026" transform="rotate(-54 113.264 146.112)" fill="#106B3D" fill-opacity="0.24"/>
<circle cx="104.722" cy="159.211" r="2.48026" transform="rotate(-60 104.722 159.211)" fill="#106B3D" fill-opacity="0.24"/>
<circle cx="97.5989" cy="173.13" r="2.48026" transform="rotate(-66 97.5989 173.13)" fill="#106B3D" fill-opacity="0.24"/>
<circle cx="91.9737" cy="187.718" r="2.48026" transform="rotate(-72 91.9737 187.718)" fill="#106B3D" fill-opacity="0.24"/>
<circle cx="87.9083" cy="202.815" r="2.48026" transform="rotate(-78 87.9083 202.815)" fill="#106B3D" fill-opacity="0.24"/>
<circle cx="85.4469" cy="218.254" r="2.48025" transform="rotate(-84 85.4469 218.254)" fill="#106B3D" fill-opacity="0.24"/>
<circle cx="84.6167" cy="233.868" r="2.48026" transform="rotate(-90 84.6167 233.868)" fill="#106B3D" fill-opacity="0.24"/>
<circle cx="85.4267" cy="249.485" r="2.48026" transform="rotate(-96 85.4267 249.485)" fill="#106B3D" fill-opacity="0.24"/>
<circle cx="87.8677" cy="264.934" r="2.48026" transform="rotate(-102 87.8677 264.934)" fill="#106B3D" fill-opacity="0.24"/>
<circle cx="91.9132" cy="280.045" r="2.48026" transform="rotate(-108 91.9132 280.045)" fill="#106B3D" fill-opacity="0.24"/>
<circle cx="97.519" cy="294.655" r="2.48026" transform="rotate(-114 97.519 294.655)" fill="#106B3D" fill-opacity="0.24"/>
<circle cx="104.623" cy="308.6" r="2.48026" transform="rotate(-120 104.623 308.6)" fill="#106B3D" fill-opacity="0.24"/>
<circle cx="113.098" cy="321.716" r="2.48026" transform="rotate(-126 113.098 321.716)" fill="#106B3D" fill-opacity="0.24"/>
<circle cx="122.9" cy="333.873" r="2.48026" transform="rotate(-132 122.9 333.873)" fill="#106B3D" fill-opacity="0.24"/>
<circle cx="321.94" cy="113.33" r="2.48026" transform="rotate(36 321.94 113.33)" fill="#106B3D" fill-opacity="0.24"/>
<circle cx="308.827" cy="104.796" r="2.48026" transform="rotate(30 308.827 104.796)" fill="#106B3D" fill-opacity="0.24"/>
<circle cx="294.898" cy="97.6784" r="2.48026" transform="rotate(24 294.898 97.6784)" fill="#106B3D" fill-opacity="0.24"/>
<circle cx="280.306" cy="92.0565" r="2.48026" transform="rotate(18 280.306 92.0565)" fill="#106B3D" fill-opacity="0.24"/>
<circle cx="265.209" cy="87.991" r="2.48026" transform="rotate(12 265.209 87.991)" fill="#106B3D" fill-opacity="0.24"/>
<circle cx="249.774" cy="85.5267" r="2.48025" transform="rotate(6 249.774 85.5267)" fill="#106B3D" fill-opacity="0.24"/>
<circle cx="234.17" cy="84.6912" r="2.48026" fill="#106B3D" fill-opacity="0.24"/>
<circle cx="218.567" cy="85.4926" r="2.48026" transform="rotate(-6 218.567 85.4926)" fill="#106B3D" fill-opacity="0.24"/>
<circle cx="203.137" cy="87.9226" r="2.48026" transform="rotate(-12 203.137 87.9226)" fill="#106B3D" fill-opacity="0.24"/>
<circle cx="188.048" cy="91.9547" r="2.48026" transform="rotate(-18 188.048 91.9547)" fill="#106B3D" fill-opacity="0.24"/>
<circle cx="173.467" cy="97.5451" r="2.48026" transform="rotate(-24 173.467 97.5451)" fill="#106B3D" fill-opacity="0.24"/>
<circle cx="159.552" cy="104.632" r="2.48026" transform="rotate(-30 159.552 104.632)" fill="#106B3D" fill-opacity="0.24"/>
<circle cx="132.065" cy="105.369" r="2.23223" transform="rotate(-38.4545 132.065 105.369)" fill="#106B3D" fill-opacity="0.24"/>
<circle cx="120.271" cy="115.641" r="2.23223" transform="rotate(-43.9091 120.271 115.641)" fill="#106B3D" fill-opacity="0.24"/>
<circle cx="109.51" cy="126.987" r="2.23223" transform="rotate(-49.3636 109.51 126.987)" fill="#106B3D" fill-opacity="0.24"/>
<circle cx="99.8792" cy="139.303" r="2.23223" transform="rotate(-54.8182 99.8792 139.303)" fill="#106B3D" fill-opacity="0.24"/>
<circle cx="91.4663" cy="152.479" r="2.23223" transform="rotate(-60.2727 91.4663 152.479)" fill="#106B3D" fill-opacity="0.24"/>
<circle cx="84.3468" cy="166.393" r="2.23223" transform="rotate(-65.7273 84.3468 166.393)" fill="#106B3D" fill-opacity="0.24"/>
<circle cx="78.5852" cy="180.921" r="2.23223" transform="rotate(-71.1818 78.5852 180.921)" fill="#106B3D" fill-opacity="0.24"/>
<circle cx="74.2344" cy="195.932" r="2.23223" transform="rotate(-76.6364 74.2344 195.932)" fill="#106B3D" fill-opacity="0.24"/>
<circle cx="71.3329" cy="211.288" r="2.23223" transform="rotate(-82.0909 71.3329 211.288)" fill="#106B3D" fill-opacity="0.24"/>
<circle cx="69.9076" cy="226.851" r="2.23223" transform="rotate(-87.5455 69.9076 226.851)" fill="#106B3D" fill-opacity="0.24"/>
<circle cx="69.9712" cy="242.481" r="2.23223" transform="rotate(-93 69.9712 242.481)" fill="#106B3D" fill-opacity="0.24"/>
<circle cx="71.5233" cy="258.035" r="2.23223" transform="rotate(-98.4545 71.5233 258.035)" fill="#106B3D" fill-opacity="0.24"/>
<circle cx="74.5496" cy="273.372" r="2.23223" transform="rotate(-103.909 74.5496 273.372)" fill="#106B3D" fill-opacity="0.24"/>
<circle cx="79.0228" cy="288.354" r="2.23223" transform="rotate(-109.364 79.0228 288.354)" fill="#106B3D" fill-opacity="0.24"/>
<circle cx="84.9021" cy="302.846" r="2.23223" transform="rotate(-114.818 84.9021 302.846)" fill="#106B3D" fill-opacity="0.24"/>
<circle cx="92.1348" cy="316.715" r="2.23223" transform="rotate(-120.273 92.1348 316.715)" fill="#106B3D" fill-opacity="0.24"/>
<circle cx="100.646" cy="329.822" r="2.23223" transform="rotate(-125.727 100.646 329.822)" fill="#106B3D" fill-opacity="0.24"/>
<circle cx="322.324" cy="95.5698" r="2.23223" transform="rotate(32.4545 322.324 95.5698)" fill="#106B3D" fill-opacity="0.24"/>
<circle cx="308.749" cy="87.8041" r="2.23223" transform="rotate(27 308.749 87.8041)" fill="#106B3D" fill-opacity="0.24"/>
<circle cx="294.5" cy="81.3638" r="2.23223" transform="rotate(21.5455 294.5 81.3638)" fill="#106B3D" fill-opacity="0.24"/>
<circle cx="279.706" cy="76.3074" r="2.23223" transform="rotate(16.0909 279.706 76.3074)" fill="#106B3D" fill-opacity="0.24"/>
<circle cx="264.5" cy="72.6801" r="2.23223" transform="rotate(10.6364 264.5 72.6801)" fill="#106B3D" fill-opacity="0.24"/>
<circle cx="249.022" cy="70.515" r="2.23223" transform="rotate(5.18182 249.022 70.515)" fill="#106B3D" fill-opacity="0.24"/>
<circle cx="233.41" cy="69.8324" r="2.23223" transform="rotate(-0.272725 233.41 69.8324)" fill="#106B3D" fill-opacity="0.24"/>
<circle cx="217.807" cy="70.637" r="2.23223" transform="rotate(-5.72727 217.807 70.637)" fill="#106B3D" fill-opacity="0.24"/>
<circle cx="202.353" cy="72.923" r="2.23223" transform="rotate(-11.1818 202.353 72.923)" fill="#106B3D" fill-opacity="0.24"/>
<circle cx="187.189" cy="76.6687" r="2.23223" transform="rotate(-16.6364 187.189 76.6687)" fill="#106B3D" fill-opacity="0.24"/>
<circle cx="172.451" cy="81.8402" r="2.23223" transform="rotate(-22.0909 172.451 81.8402)" fill="#106B3D" fill-opacity="0.24"/>
<circle cx="158.273" cy="88.3912" r="2.23223" transform="rotate(-27.5455 158.273 88.3912)" fill="#106B3D" fill-opacity="0.24"/>
<circle cx="144.785" cy="96.2628" r="2.23223" transform="rotate(-33 144.785 96.2628)" fill="#106B3D" fill-opacity="0.24"/>
</svg>
