<svg width="40" height="40" viewBox="0 0 40 40" fill="none" xmlns="http://www.w3.org/2000/svg">
<g clip-path="url(#clip0_116_45583)">
<path d="M25.0002 24.2858L13.5717 13.7143C7.3431 7.45719 16.4288 -4.6571 25.0002 5.1429C33.5717 -4.62853 42.7431 7.48576 36.4288 13.7143L25.0002 24.2858Z" stroke="white" stroke-width="2.5" stroke-linecap="round" stroke-linejoin="round"/>
<path d="M1.42896 31.4285L8.41104 37.2468C9.43798 38.1028 10.7325 38.5713 12.0692 38.5713H30.4767C31.7915 38.5713 32.8575 37.5053 32.8575 36.1905C32.8575 33.5605 30.7255 31.4285 28.0956 31.4285H15.2984" stroke="white" stroke-width="2.5" stroke-linecap="round" stroke-linejoin="round"/>
<path d="M10.0004 28.5716L12.1432 30.7144C13.3267 31.8979 15.2455 31.8979 16.429 30.7144C17.6124 29.531 17.6124 27.6122 16.429 26.4287L13.1026 23.1024C12.031 22.0307 10.5776 21.4287 9.06201 21.4287H1.42896" stroke="white" stroke-width="2.5" stroke-linecap="round" stroke-linejoin="round"/>
</g>
<defs>
<clipPath id="clip0_116_45583">
<rect width="40" height="40" fill="white"/>
</clipPath>
</defs>
</svg>
