<svg width="40" height="40" viewBox="0 0 40 40" fill="none" xmlns="http://www.w3.org/2000/svg">
<g clip-path="url(#clip0_116_45572)">
<path d="M2.85718 15.4185C2.85718 22.5503 8.83374 29.5647 18.2758 35.5915C18.6273 35.8091 19.1295 36.0435 19.481 36.0435C19.8326 36.0435 20.3349 35.8091 20.7032 35.5915C30.1283 29.5647 36.1049 22.5503 36.1049 15.4185C36.1049 9.49215 32.0369 5.30688 26.6128 5.30688C23.5156 5.30688 21.0045 6.78009 19.481 9.04014C17.9912 6.79684 15.4465 5.30688 12.3494 5.30688C6.92526 5.30688 2.85718 9.49215 2.85718 15.4185ZM5.55249 15.4185C5.55249 10.9654 8.43195 8.00219 12.3159 8.00219C15.4632 8.00219 17.2712 9.96091 18.3426 11.635C18.7946 12.3046 19.0793 12.4888 19.481 12.4888C19.8829 12.4888 20.134 12.2879 20.6195 11.635C21.7746 9.99438 23.5156 8.00219 26.6462 8.00219C30.5302 8.00219 33.4096 10.9654 33.4096 15.4185C33.4096 21.6461 26.8303 28.3594 19.8326 33.0134C19.6652 33.1305 19.548 33.2143 19.481 33.2143C19.414 33.2143 19.2969 33.1305 19.1462 33.0134C12.1317 28.3594 5.55249 21.6461 5.55249 15.4185Z" fill="white"/>
</g>
<defs>
<clipPath id="clip0_116_45572">
<rect width="33.2477" height="31.7579" fill="white" transform="translate(2.85718 4.28564)"/>
</clipPath>
</defs>
</svg>
