<svg width="32" height="32" viewBox="0 0 32 32" fill="none" xmlns="http://www.w3.org/2000/svg">
<path fill-rule="evenodd" clip-rule="evenodd" d="M23.2847 3.16497C21.7618 2.99998 19.8423 2.99999 17.3936 3H14.6063C12.1576 2.99999 10.2381 2.99998 8.71526 3.16497C7.16121 3.33334 5.90204 3.6831 4.82694 4.4642C4.17608 4.93708 3.60371 5.50945 3.13083 6.16031C2.91525 6.45703 2.73064 6.77041 2.57312 7.10396C2.09074 8.12539 1.87557 9.30982 1.77071 10.7222C1.66662 12.1243 1.66662 13.843 1.66663 15.9621V16.0603C1.66662 18.509 1.66661 20.4285 1.8316 21.9514C1.99997 23.5054 2.34972 24.7646 3.13083 25.8397C3.60371 26.4905 4.17608 27.0629 4.82694 27.5358C5.90204 28.3169 7.16121 28.6667 8.71526 28.835C10.2381 29 12.1575 29 14.6062 29H17.3937C19.8423 29 21.7618 29 23.2847 28.835C24.8387 28.6667 26.0979 28.3169 27.173 27.5358C27.8238 27.0629 28.3962 26.4905 28.8691 25.8397C29.6502 24.7646 30 23.5054 30.1683 21.9514C30.3333 20.4285 30.3333 18.5091 30.3333 16.0605V15.9612C30.3333 13.8276 30.3333 12.0998 30.2269 10.6921C30.1198 9.27341 29.8998 8.08505 29.4061 7.06062C29.2531 6.74312 29.0752 6.44405 28.8691 6.16031C28.3962 5.50945 27.8238 4.93708 27.173 4.4642C26.0979 3.6831 24.8387 3.33334 23.2847 3.16497ZM6.00251 6.08224C6.67985 5.59012 7.5468 5.30327 8.93069 5.15334C10.3333 5.00137 12.1445 5 14.6666 5H17.3333C19.8554 5 21.6666 5.00137 23.0692 5.15334C24.4531 5.30327 25.3201 5.59012 25.9974 6.08224C26.4782 6.43159 26.9011 6.85441 27.2506 7.33519L24.7209 9.86481C22.4787 12.107 20.8667 13.716 19.4763 14.7769C18.109 15.8201 17.0741 16.2386 16 16.2386C14.9258 16.2386 13.891 15.8201 12.5236 14.7769C11.1332 13.716 9.52119 12.107 7.27898 9.8648L4.74937 7.33519C5.09879 6.85441 5.52167 6.43159 6.00251 6.08224ZM28.0497 9.3645C28.1302 9.79147 28.19 10.2785 28.2326 10.8427C28.3326 12.1666 28.3333 13.8198 28.3333 16C28.3333 18.5221 28.3319 20.3333 28.18 21.7359C28.03 23.1198 27.7432 23.9868 27.2511 24.6641C26.9015 25.1452 26.4785 25.5682 25.9974 25.9178C25.3201 26.4099 24.4531 26.6967 23.0692 26.8467C21.6666 26.9986 19.8554 27 17.3333 27H14.6666C12.1445 27 10.3333 26.9986 8.93069 26.8467C7.5468 26.6967 6.67985 26.4099 6.00251 25.9178C5.52144 25.5682 5.09838 25.1452 4.74886 24.6641C4.25675 23.9868 3.9699 23.1198 3.81996 21.7359C3.668 20.3333 3.66663 18.5221 3.66663 16C3.66663 13.8353 3.66725 12.1899 3.76522 10.8703C3.80798 10.2945 3.86838 9.79847 3.95024 9.3645L5.91885 11.3331C8.09522 13.5095 9.80079 15.2151 11.3105 16.3669C12.8557 17.5459 14.3127 18.2386 16 18.2386C17.6872 18.2386 19.1442 17.5459 20.6895 16.3669C22.1991 15.2151 23.9047 13.5095 26.081 11.3331L28.0497 9.3645Z" fill="#FE5808"/>
</svg>
