<svg width="44" height="33" viewBox="0 0 44 33" fill="none" xmlns="http://www.w3.org/2000/svg">
<path d="M-0.000111828 32.9186V23.8636C-0.000111828 21.1912 0.502942 18.3772 1.50905 15.4218C2.51516 12.4663 3.91428 9.63663 5.70641 6.93272C7.49854 4.2288 9.60508 1.9179 12.026 5.93232e-06L19.0059 4.9991C17.088 7.79734 15.4531 10.7213 14.1011 13.7711C12.7492 16.8209 12.0732 20.1379 12.0732 23.7222V32.9186H-0.000111828ZM24.0522 32.9186V23.8636C24.0522 21.1912 24.5552 18.3772 25.5613 15.4218C26.5674 12.4663 27.9666 9.63663 29.7587 6.93272C31.5508 4.2288 33.6574 1.9179 36.0783 5.93232e-06L43.0582 4.9991C41.1403 7.79734 39.5054 10.7213 38.1534 13.7711C36.8015 16.8209 36.1255 20.1379 36.1255 23.7222V32.9186H24.0522Z" fill="#FE5808"/>
</svg>
