<svg width="20" height="20" viewBox="0 0 20 20" fill="none" xmlns="http://www.w3.org/2000/svg">
<path d="M12.4319 14.3757C8.80476 14.3757 5.85378 11.4228 5.85278 7.79457C5.85378 6.87484 6.60245 6.12694 7.51992 6.12694C7.61424 6.12694 7.70757 6.13489 7.79693 6.15078C7.99353 6.18356 8.18021 6.2501 8.35199 6.35042C8.37681 6.36532 8.39369 6.38917 8.39766 6.41698L8.78093 8.83347C8.7859 8.86228 8.77696 8.89009 8.7581 8.91095C8.5466 9.14535 8.27652 9.31421 7.97567 9.39863L7.8307 9.43935L7.88531 9.57938C8.37979 10.8388 9.38662 11.8449 10.6466 12.3415L10.7867 12.3972L10.8274 12.2522C10.9118 11.9512 11.0806 11.681 11.3149 11.4695C11.3318 11.4536 11.3546 11.4457 11.3774 11.4457C11.3824 11.4457 11.3874 11.4457 11.3933 11.4466L13.8091 11.83C13.8379 11.835 13.8618 11.8509 13.8766 11.8757C13.9759 12.0476 14.0425 12.2353 14.0762 12.4319C14.0921 12.5193 14.0991 12.6117 14.0991 12.708C14.0991 13.6268 13.3514 14.3747 12.4319 14.3757Z" fill="#FE5808"/>
<path d="M18.8642 9.43335C18.6686 7.22244 17.6558 5.17145 16.0125 3.65877C14.3593 2.13716 12.2145 1.29888 9.97149 1.29888C5.04854 1.29888 1.04307 5.30552 1.04307 10.2299C1.04307 11.8826 1.49882 13.4926 2.36168 14.8951L0.713718 18.5441C0.591381 18.815 0.809439 19.1164 1.105 19.0849L6.59851 18.4995C7.66988 18.9385 8.8038 19.161 9.97049 19.161C10.2773 19.161 10.5921 19.1451 10.9078 19.1123C11.1858 19.0825 11.4668 19.0388 11.7429 18.9832C15.8655 18.1499 18.8751 14.4898 18.8989 10.2776V10.2299C18.8989 9.96175 18.887 9.69358 18.8632 9.43435L18.8642 9.43335ZM6.83582 16.6292L3.4271 16.9928L4.44485 14.7372L4.2413 14.464C4.2264 14.4442 4.21151 14.4243 4.19463 14.4014C3.31092 13.1808 2.84424 11.7386 2.84424 10.2309C2.84424 6.29974 6.04147 3.10156 9.97149 3.10156C13.6533 3.10156 16.774 5.97496 17.0749 9.64293C17.0908 9.83959 17.0997 10.0372 17.0997 10.2319C17.0997 10.2875 17.0987 10.3421 17.0977 10.4007C17.0223 13.6893 14.7256 16.4823 11.5125 17.1934C11.2673 17.248 11.016 17.2897 10.7658 17.3166C10.5057 17.3464 10.2386 17.3613 9.97347 17.3613C9.0292 17.3613 8.11173 17.1785 7.24491 16.817C7.14859 16.7782 7.05426 16.7365 6.96589 16.6938L6.83681 16.6312L6.83582 16.6292Z" fill="#FE5808"/>
</svg>
